<?xml version="1.0" encoding="UTF-8"?>
<svg version="1.1" xmlns="http://www.w3.org/2000/svg" width="24" height="24">
<path d="M0 0 C8.57142857 -0.14285714 8.57142857 -0.14285714 12 1 C12 1.66 12 2.32 12 3 C12.66 3 13.32 3 14 3 C14 2.01 14 1.02 14 0 C16.64 0 19.28 0 22 0 C22 2.64 22 5.28 22 8 C20.68 8 19.36 8 18 8 C18 8.66 18 9.32 18 10 C19.32 10 20.64 10 22 10 C22 13.96 22 17.92 22 22 C20.02 22 18.04 22 16 22 C16 20.68 16 19.36 16 18 C15.34 18 14.68 18 14 18 C14 18.66 14 19.32 14 20 C12.68 20 11.36 20 10 20 C10 18.68 10 17.36 10 16 C10.66 16 11.32 16 12 16 C12.33 15.01 12.66 14.02 13 13 C12.01 12.67 11.02 12.34 10 12 C10 12.66 10 13.32 10 14 C9.34 14 8.68 14 8 14 C8 16.64 8 19.28 8 22 C5.36 22 2.72 22 0 22 C0 19.36 0 16.72 0 14 C0.66 14 1.32 14 2 14 C2 12.68 2 11.36 2 10 C2.66 10 3.32 10 4 10 C4 9.34 4 8.68 4 8 C2.68 8 1.36 8 0 8 C0 5.36 0 2.72 0 0 Z M18 18 C18 18.66 18 19.32 18 20 C18.66 20 19.32 20 20 20 C20 19.34 20 18.68 20 18 C19.34 18 18.68 18 18 18 Z " fill="#F43636" transform="translate(1,1)"/>
</svg>
