<?xml version="1.0" encoding="UTF-8"?>
<svg version="1.1" xmlns="http://www.w3.org/2000/svg" width="601" height="415">
<path d="M0 0 C3.74013152 0.95900808 5.17767731 2.5258146 7.4375 5.625 C8.38483142 13.68220024 5.65870414 21.35746023 3.5625 29.0625 C2.83277365 31.78952387 2.10752568 34.51773369 1.3828125 37.24609375 C1.20944366 37.89867661 1.03607483 38.55125946 0.85745239 39.22361755 C-1.95795448 49.80486358 -1.95795448 49.80486358 -2.6875 60.6875 C-2.66945313 61.81285156 -2.65140625 62.93820313 -2.6328125 64.09765625 C-2.60960937 64.93167969 -2.58640625 65.76570313 -2.5625 66.625 C-2.27117187 65.65820312 -1.97984375 64.69140625 -1.6796875 63.6953125 C-1.26630211 62.37999534 -0.85220024 61.0649032 -0.4375 59.75 C-0.15519531 58.80253906 -0.15519531 58.80253906 0.1328125 57.8359375 C3.45367932 47.4582287 9.59897813 39.82642323 17.3125 32.3125 C18.07691406 31.54099609 18.84132813 30.76949219 19.62890625 29.97460938 C27.13092579 22.55537953 34.61662391 16.69832131 45.5 16.3125 C50.7623569 16.43102155 53.42892113 17.81727902 57.3125 21.3125 C59.05497751 24.89425933 58.63263369 27.95947823 57.4375 31.625 C55.7492939 34.58924148 53.70349175 37.08341465 51.4375 39.625 C50.88578125 40.24632812 50.3340625 40.86765625 49.765625 41.5078125 C43.89557713 47.7279091 37.14182204 52.68785584 28.4375 53.625 C26.72870436 53.46314203 25.02037507 53.29629885 23.3125 53.125 C20.78196986 52.95326659 20.78196986 52.95326659 18.4375 53.625 C15.60090351 56.57458461 14.04999146 59.89445046 12.4375 63.625 C11.92896484 64.74841797 11.92896484 64.74841797 11.41015625 65.89453125 C9.89915551 69.53625193 9.06795908 72.68323022 9.4375 76.625 C22.92545119 78.51331317 37.61029825 66.17742289 47.875 58.625 C48.65746094 58.026875 49.43992187 57.42875 50.24609375 56.8125 C52.4375 55.625 52.4375 55.625 54.72265625 55.9375 C55.28855469 56.164375 55.85445312 56.39125 56.4375 56.625 C56.52902344 56.02945313 56.62054688 55.43390625 56.71484375 54.8203125 C57.61721308 52.0790608 58.73855512 51.2613602 61 49.5 C65.06619744 46.10787808 68.18191181 42.36963447 71.41796875 38.1953125 C81.82363861 24.95173267 81.82363861 24.95173267 86.9375 24.3125 C89.4375 24.625 89.4375 24.625 91.25 25.6875 C93.14075689 28.77241914 92.7991281 31.06351112 92.4375 34.625 C91.09354452 37.19967864 89.32562084 39.30413738 87.4375 41.5 C86.94145264 42.10279785 86.44540527 42.7055957 85.93432617 43.32666016 C84.45544236 45.1110355 82.95293757 46.87161793 81.4375 48.625 C80.60863281 49.5840625 79.77976562 50.543125 78.92578125 51.53125 C77.11731412 53.58322707 75.29286377 55.61546561 73.4375 57.625 C76.7281253 55.04570495 79.82871134 52.36150511 82.875 49.5 C86.96975157 45.80981969 91.19073335 42.39198072 95.625 39.125 C96.19468506 38.69171387 96.76437012 38.25842773 97.35131836 37.81201172 C101.47737115 34.84058678 104.49715176 33.97653685 109.4375 33.625 C109.7675 34.615 110.0975 35.605 110.4375 36.625 C112.43766466 37.83382096 112.43766466 37.83382096 114.4375 38.625 C115.37526646 47.95056648 113.13274844 54.810366 109.45263672 63.20947266 C107.32858091 68.26368338 105.46979547 73.42355553 103.5625 78.5625 C102.77353443 80.67581744 101.98447956 82.78910154 101.1953125 84.90234375 C100.60914173 86.47647566 100.0231101 88.05065943 99.4375 89.625 C100.02760864 88.58956055 100.02760864 88.58956055 100.62963867 87.53320312 C105.53369744 79.07706499 111.94268735 72.35083392 118.73339844 65.38916016 C120.2909946 63.77666877 121.81074873 62.13778841 123.3203125 60.48046875 C124.16335938 59.57941406 125.00640625 58.67835937 125.875 57.75 C126.95587891 56.57824219 126.95587891 56.57824219 128.05859375 55.3828125 C131.19106662 53.06817737 133.5792207 52.75789137 137.4375 52.625 C140.4375 54.625 140.4375 54.625 142.4375 57.625 C142.49904954 61.06356743 142.30451749 63.5414659 140.10205078 66.29394531 C138.29293876 68.02630713 136.42163727 69.6434537 134.5 71.25 C127.19964629 77.67375358 119.84673601 84.80652798 115.4375 93.625 C120.59376174 90.04581615 125.71067047 86.42994325 130.75 82.6875 C135.65860916 79.10070425 140.7445198 75.92417509 145.9453125 72.78125 C152.2425779 68.9383592 158.32193625 64.74802419 164.4375 60.625 C167.4375 58.625 167.4375 58.625 169.9375 58.75 C173.04716171 59.8383816 173.93703812 60.70304792 175.4375 63.625 C176 66.4375 176 66.4375 175.4375 69.625 C174.25463867 71.20166016 174.25463867 71.20166016 172.73046875 72.8515625 C169.54523022 76.43631031 166.853066 80.20788786 164.1875 84.1875 C161.04081023 88.83530847 157.86537615 93.4482075 154.55615234 97.98193359 C149.0155844 105.58036462 144.1388131 113.48539615 139.4375 121.625 C139.07398438 122.2439917 138.71046875 122.8629834 138.3359375 123.50073242 C136.21616673 127.13976824 134.62243474 130.57647299 133.4375 134.625 C129.63735035 134.08212148 127.89853687 132.51035357 125.4375 129.625 C123.79845241 124.70785724 123.81882235 120.50869432 125.9765625 115.79296875 C126.65653037 114.45821701 127.35246458 113.13150274 128.0625 111.8125 C128.42279297 111.11833984 128.78308594 110.42417969 129.15429688 109.70898438 C132.03374688 104.22019207 135.11594598 98.85896391 138.4375 93.625 C135.56204228 95.0236955 132.80542928 96.54455089 130.0625 98.1875 C128.75732422 98.96480469 128.75732422 98.96480469 127.42578125 99.7578125 C125.20688041 101.14426296 123.06253592 102.56145054 120.91796875 104.0546875 C120.31065918 104.46904053 119.70334961 104.88339355 119.07763672 105.31030273 C117.88183762 106.12959923 116.69660558 106.96459153 115.52392578 107.81665039 C112.36633763 109.95952731 110.53799211 110.62510468 106.6875 110.62109375 C103.4375 109.625 103.4375 109.625 101.73046875 107.8828125 C101.18326172 106.82707031 101.18326172 106.82707031 100.625 105.75 C100.24730469 105.05132812 99.86960937 104.35265625 99.48046875 103.6328125 C99.13628906 102.97023438 98.79210937 102.30765625 98.4375 101.625 C97.7775 100.635 97.1175 99.645 96.4375 98.625 C96.1075 99.945 95.7775 101.265 95.4375 102.625 C96.4275 103.285 97.4175 103.945 98.4375 104.625 C97.6875 109.375 97.6875 109.375 95.4375 111.625 C93.0625 111.75 93.0625 111.75 90.4375 110.625 C85.71678869 103.99048681 85.65768938 97.57466143 86.4375 89.625 C87.65816595 84.76537403 89.36873299 80.16442213 91.1875 75.5 C91.6309375 74.31535156 92.074375 73.13070312 92.53125 71.91015625 C93.40236266 69.58633513 94.28165033 67.26555864 95.16992188 64.94824219 C96.98313065 60.19450609 98.7146805 55.41209887 100.4375 50.625 C89.49350872 59.29798224 79.26792128 68.71012493 69.4375 78.625 C68.8290625 79.22183594 68.220625 79.81867188 67.59375 80.43359375 C61.00647401 86.8725538 61.00647401 86.8725538 55.9375 94.5 C54.4375 96.625 54.4375 96.625 51.9375 97.1875 C49.4375 96.625 49.4375 96.625 47.75 95.0625 C44.56585586 89.14908946 43.88766371 83.22303548 44.4375 76.625 C44.7675 75.635 45.0975 74.645 45.4375 73.625 C44.45523438 74.36943359 44.45523438 74.36943359 43.453125 75.12890625 C24.90472517 88.9354129 24.90472517 88.9354129 16.4375 89.625 C10.32743615 88.62702291 5.76373473 85.95123473 1.4375 81.625 C1.128125 80.92375 0.81875 80.2225 0.5 79.5 C-0.5334665 77.23382241 -0.5334665 77.23382241 -3.9375 76.1875 C-7.9532776 74.45656138 -9.33420849 73.33881919 -11.5625 69.625 C-14.51603443 60.91207343 -14.41612499 52.89744081 -11.31640625 44.2421875 C-10.51230806 41.45075853 -10.18368796 38.71365693 -9.85961914 35.83251953 C-9.32733227 31.87776365 -8.3954769 28.0106736 -7.5 24.125 C-7.31373047 23.30257812 -7.12746094 22.48015625 -6.93554688 21.6328125 C-6.48129115 19.6294283 -6.02238401 17.6270997 -5.5625 15.625 C-7.27523293 17.76743994 -8.98266418 19.91378854 -10.6875 22.0625 C-11.161875 22.65482422 -11.63625 23.24714844 -12.125 23.85742188 C-19.00920565 32.55570875 -24.47875911 41.84989344 -29.8125 51.5625 C-31.04378946 53.8024801 -32.27801746 56.04084824 -33.515625 58.27734375 C-34.05348633 59.25695068 -34.59134766 60.23655762 -35.14550781 61.24584961 C-36.5625 63.625 -36.5625 63.625 -38.5625 65.625 C-40.875 66.125 -40.875 66.125 -43.5625 65.625 C-47.22905401 62.85471475 -48.33296641 61.15654312 -49.015625 56.6015625 C-49.26582056 48.64891777 -47.88672959 41.99755114 -45.4375 34.48828125 C-44.41637416 31.6458284 -44.41637416 31.6458284 -44.5625 28.625 C-64.76086859 49.98832271 -64.76086859 49.98832271 -78.5625 75.625 C-79.5625 77.625 -79.5625 77.625 -81.8125 78.8125 C-85.54132455 78.55826196 -86.89699383 77.09392297 -89.32421875 74.359375 C-91.24985542 71.66226875 -91.62765189 69.94774656 -91.5625 66.625 C-90.63262955 62.6188664 -89.55109995 58.89040793 -87 55.625 C-84.98114322 52.81615579 -84.6694228 49.92337936 -84.08984375 46.55078125 C-83.91582031 45.91527344 -83.74179687 45.27976563 -83.5625 44.625 C-82.5725 44.13 -82.5725 44.13 -81.5625 43.625 C-80.21083746 40.89183689 -78.95838609 38.17089029 -77.75 35.375 C-77.39107666 34.5610376 -77.03215332 33.7470752 -76.66235352 32.90844727 C-74.59592572 28.17674174 -72.73064877 23.42562303 -71 18.5625 C-68.42322345 11.66197975 -64.75751301 5.75500867 -58.5625 1.625 C-55.03954517 1.25021757 -53.21368137 1.21372755 -50.1875 3.125 C-49.65125 3.62 -49.115 4.115 -48.5625 4.625 C-48.5625 8.2643387 -48.58922024 10.57890629 -51.12890625 13.30859375 C-51.78761719 13.88738281 -52.44632812 14.46617188 -53.125 15.0625 C-59.23691939 20.63285691 -62.26490208 28.17909405 -65.5625 35.625 C-65.5625 35.955 -65.5625 36.285 -65.5625 36.625 C-65.10399658 36.13620361 -64.64549316 35.64740723 -64.1730957 35.14379883 C-62.07456915 32.90757715 -59.9747954 30.67253026 -57.875 28.4375 C-57.15376953 27.66857422 -56.43253906 26.89964844 -55.68945312 26.10742188 C-53.65309302 23.94088349 -51.6098263 21.78117349 -49.5625 19.625 C-49.0569458 19.08738037 -48.5513916 18.54976074 -48.03051758 17.99584961 C-45.89400678 15.77533446 -44.57915195 14.63102304 -41.625 13.5625 C-37.55304493 13.64560112 -35.67728893 15.08970669 -32.5625 17.625 C-29.80475399 23.14049202 -31.35370838 30.66220318 -33.0625 36.3125 C-33.54715493 37.75524594 -34.04137968 39.19502103 -34.5625 40.625 C-34.17320312 39.99335937 -33.78390625 39.36171875 -33.3828125 38.7109375 C-10.82574956 2.64042672 -10.82574956 2.64042672 0 0 Z M44 27.3125 C39.28063814 29.77991305 35.68330282 32.9042033 31.9375 36.625 C31.42131104 37.13506592 30.90512207 37.64513184 30.37329102 38.1706543 C27.52449647 41.11616279 25.650206 43.69814246 24.4375 47.625 C34.86797316 44.73997551 43.7488223 39.38162125 49.625 30.0625 C50.223125 28.928125 50.82125 27.79375 51.4375 26.625 C47.87614566 25.43788189 47.29689005 25.76962042 44 27.3125 Z " fill="#DDDDDD" transform="translate(390.5625,55.375)"/>
<path d="M0 0 C0.79148438 -0.02578125 1.58296875 -0.0515625 2.3984375 -0.078125 C5.19653562 0.3342263 5.89661976 1.04737842 7.625 3.25 C7.96557617 5.3347168 7.96557617 5.3347168 7.91796875 7.69921875 C7.9034668 8.97055664 7.9034668 8.97055664 7.88867188 10.26757812 C7.86353516 11.14865234 7.83839844 12.02972656 7.8125 12.9375 C7.79219727 14.27651367 7.79219727 14.27651367 7.77148438 15.64257812 C7.73614079 17.84566166 7.68680493 20.04752582 7.625 22.25 C8.69492188 22.09273437 9.76484375 21.93546875 10.8671875 21.7734375 C15.06391011 21.18886283 18.40225739 20.84134749 22.625 21.25 C25.5 23.75 25.5 23.75 27.625 26.25 C28.285 26.25 28.945 26.25 29.625 26.25 C30.24375 25.5075 30.24375 25.5075 30.875 24.75 C32.625 23.25 32.625 23.25 35.625 22.9375 C38.625 23.25 38.625 23.25 41.625 25.25 C41.00141068 29.33713966 39.63819083 32.55239832 37.8125 36.25 C34.73729623 42.76913702 32.50569031 49.29962278 30.625 56.25 C30.40972656 57.04019531 30.19445312 57.83039063 29.97265625 58.64453125 C28.46043295 64.77069132 28.02904205 70.96608283 27.625 77.25 C27.96273437 76.20199219 28.30046875 75.15398437 28.6484375 74.07421875 C29.09871821 72.69523407 29.54925231 71.31633211 30 69.9375 C30.33257812 68.90206055 30.33257812 68.90206055 30.671875 67.84570312 C31.72433391 64.64189438 32.74256127 62.07365809 34.625 59.25 C34.9653125 57.4865625 34.9653125 57.4865625 35.3125 55.6875 C36.79977392 49.3134689 40.78492238 43.26654414 46.1171875 39.48046875 C50.19809439 37.47815462 54.30738413 37.48057018 58.56640625 38.89453125 C59.86740302 39.42807134 61.16556359 39.96857467 62.4609375 40.515625 C66.39333722 41.85008556 70.50217089 42.00499581 74.625 42.25 C75.06070313 41.46496094 75.49640625 40.67992187 75.9453125 39.87109375 C86.09012061 21.97494956 86.09012061 21.97494956 96.625 18.25 C100.43034424 17.61577596 103.83499634 17.47716075 107.625 18.25 C111.14976997 21.18730831 112.03406713 23.80487162 112.625 28.25 C111.24622185 39.31469469 105.12381811 48.96554726 96.53515625 55.8828125 C92.05174364 59.09179903 88.08765834 60.59968353 82.625 61.25 C79.73047117 69.69237574 79.27478345 77.36487651 79.625 86.25 C85.9452272 86.12415477 88.82635193 84.86732545 93.2565918 80.38623047 C93.8731665 79.72252441 94.48974121 79.05881836 95.125 78.375 C95.77573486 77.69969238 96.42646973 77.02438477 97.09692383 76.32861328 C101.48958662 71.69060246 105.42609143 66.90907886 109.01171875 61.6171875 C111.57553288 57.85527136 113.81341913 54.79105391 117.625 52.25 C118.61987641 50.4848967 119.61362176 48.71903693 120.5859375 46.94140625 C121.94758059 44.724897 123.31415526 43.44269406 125.625 42.25 C126.615 42.58 127.605 42.91 128.625 43.25 C128.10557989 47.94555776 126.88036511 50.93016374 124.3125 54.875 C123.58649263 56.00389319 122.86268569 57.13420337 122.140625 58.265625 C121.74166016 58.88888672 121.34269531 59.51214844 120.93164062 60.15429688 C119.46361468 62.50884372 118.06492774 64.8972293 116.671875 67.296875 C116.15794189 68.17649902 115.64400879 69.05612305 115.11450195 69.96240234 C114.10287971 71.69793046 113.09843838 73.43767036 112.10229492 75.18212891 C108.8696617 80.68070792 105.27532743 84.9120134 100.625 89.25 C99.3875 90.61125 99.3875 90.61125 98.125 92 C94.06431902 95.65461288 91.12071586 97.35605964 85.68359375 97.125 C80.09672334 96.35723376 75.45654375 95.68022246 71.625 91.25 C65.23888387 81.86765815 65.37463702 70.47602409 67.26171875 59.5703125 C68.22395747 55.73074533 69.37385017 52.0034495 70.625 48.25 C69.614375 48.311875 68.60375 48.37375 67.5625 48.4375 C63.625 48.25 63.625 48.25 60 46.6875 C56.3248365 45.12215258 55.30638459 45.01357355 51.625 46.25 C46.37027928 51.587187 43.95311886 58.94635629 41.75 65.9375 C41.2557251 67.45476685 41.2557251 67.45476685 40.75146484 69.00268555 C37.54035453 79.07555144 34.83929151 89.29090172 32.23876953 99.53588867 C31.92536621 100.75767822 31.61196289 101.97946777 31.2890625 103.23828125 C31.01529785 104.32665283 30.7415332 105.41502441 30.45947266 106.53637695 C29.625 109.25 29.625 109.25 27.625 112.25 C26.18489519 111.99337755 24.7479313 111.71909179 23.3125 111.4375 C22.11173828 111.21126953 22.11173828 111.21126953 20.88671875 110.98046875 C18.31602762 110.15021099 17.2149315 109.42409163 15.625 107.25 C15.21106167 100.7304713 15.21106167 100.7304713 16.12890625 97.44775391 C16.69822973 94.92558365 16.75187719 92.63651518 16.765625 90.05078125 C16.99601659 75.21194208 18.67259482 61.35526652 22.01513672 46.89794922 C22.59351918 44.38668575 23.12820965 41.86907275 23.66015625 39.34765625 C24.36190532 36.16301619 25.27777321 33.23314504 26.625 30.25 C23.47630887 30.86114587 20.33170565 31.49121444 17.1875 32.125 C16.28966797 32.29902344 15.39183594 32.47304687 14.46679688 32.65234375 C13.61279297 32.82636719 12.75878906 33.00039062 11.87890625 33.1796875 C11.08814697 33.33679199 10.2973877 33.49389648 9.48266602 33.65576172 C8.86963623 33.85186035 8.25660645 34.04795898 7.625 34.25 C6.32486538 36.85026924 6.49082424 38.75535949 6.47973633 41.66748047 C6.47335648 42.80402069 6.46697662 43.94056091 6.46040344 45.11154175 C6.45929062 46.35090485 6.4581778 47.59026794 6.45703125 48.8671875 C6.45370285 50.14868683 6.45037445 51.43018616 6.44694519 52.7505188 C6.44094153 55.47935828 6.43910578 58.2081661 6.43969727 60.93701172 C6.43977754 63.69684545 6.43300085 66.45650976 6.41918945 69.21630859 C6.34112391 85.00812955 6.56601638 100.573727 8.625 116.25 C9.223125 115.425 9.82125 114.6 10.4375 113.75 C11.159375 112.925 11.88125 112.1 12.625 111.25 C13.615 111.25 14.605 111.25 15.625 111.25 C16.625 112.25 16.625 112.25 16.71484375 114.39453125 C16.3061063 121.55267689 16.3061063 121.55267689 13 124.9375 C8.87392234 126.54208575 6.86816991 126.46233426 2.625 125.25 C-1.34712977 123.41670934 -3.54136432 121.66327098 -5.125 117.625 C-7.09586132 110.70379877 -7.49698272 103.35797693 -8.12548828 96.21362305 C-8.32585886 94.25544884 -8.32585886 94.25544884 -8.88349915 92.43104553 C-9.42787172 90.0153806 -9.49504044 87.86536803 -9.48852539 85.38964844 C-9.48844986 84.42895447 -9.48837433 83.4682605 -9.48829651 82.47845459 C-9.48313522 81.44915833 -9.47797394 80.41986206 -9.47265625 79.359375 C-9.4712413 78.29962463 -9.46982635 77.23987427 -9.46836853 76.14801025 C-9.46277382 72.76531138 -9.45022225 69.38267885 -9.4375 66 C-9.43248432 63.70573012 -9.42792153 61.41145921 -9.42382812 59.1171875 C-9.41280611 53.49476906 -9.39607321 47.87238927 -9.375 42.25 C-10.46425781 42.5696875 -11.55351562 42.889375 -12.67578125 43.21875 C-18.71134868 44.90131579 -18.71134868 44.90131579 -22.375 44.25 C-24.75 41.25 -24.75 41.25 -26.375 38.25 C-25.84765625 36.44921875 -25.84765625 36.44921875 -24.375 34.25 C-21.83636374 33.01958265 -19.45185351 32.00600149 -16.8125 31.0625 C-12.25464502 29.69195358 -12.25464502 29.69195358 -8.375 27.25 C-8.1357503 23.60049265 -7.98014867 19.9575983 -7.85742188 16.30273438 C-7.1511684 0.13885764 -7.1511684 0.13885764 0 0 Z M99.0625 29.25 C94.66448275 33.66702885 91.71492921 38.11878278 88.9375 43.6875 C88.58679443 44.38552734 88.23608887 45.08355469 87.87475586 45.80273438 C85.8365672 49.88526972 85.8365672 49.88526972 86.625 54.25 C95.62281726 48.42653959 101.20625893 40.40798351 104.625 30.25 C104.96702694 27.37088958 104.96702694 27.37088958 104.625 25.25 C102.4678579 25.25 100.50157446 27.91418737 99.0625 29.25 Z " fill="#DEDEDE" transform="translate(144.375,41.75)"/>
<path d="M0 0 C7.19957307 -0.32725332 12.08972813 0.01111985 17.83984375 4.56640625 C23.80542319 10.32128089 25.63014509 16.70183249 26.171875 24.7109375 C25.93211607 39.4561119 20.70476908 58.17804342 10.08203125 68.80078125 C6.41981915 71.68586611 3.09653576 71.80581251 -1.390625 71.2734375 C-7.30607684 70.11516721 -11.55930059 68.21932346 -15.2421875 63.3359375 C-19.04210008 56.5116047 -18.73164782 47.97542553 -19.14453125 40.375 C-19.34617692 37.83362435 -19.7639754 35.71939241 -20.390625 33.2734375 C-21.03947692 24.37058558 -21.36162097 12.17711034 -16.390625 4.4609375 C-12.12049456 -0.20951767 -5.94564651 0.47948762 0 0 Z M-3.390625 6.2734375 C-9.37535618 21.53593376 -9.03408537 41.53057131 -5.390625 57.2734375 C-4.45254926 59.30321924 -3.46777491 61.31390999 -2.390625 63.2734375 C8.8323225 55.1929153 12.2174766 42.30049997 14.609375 29.2734375 C15.56778314 21.30465071 14.2432255 13.52811908 9.984375 6.6484375 C6.02155926 4.35417576 0.74202706 4.20711147 -3.390625 6.2734375 Z " fill="#DDDDDD" transform="translate(106.390625,95.7265625)"/>
<path d="M0 0 C0 3.81913189 -0.10219914 4.61837164 -1.83984375 7.6875 C-4.10237031 12.00732174 -5.41316848 16.27417128 -6.5625 21 C-6.77302002 21.8559375 -6.98354004 22.711875 -7.20043945 23.59375 C-10.13954438 36.16765414 -11.35727325 49.02674115 -12.5546875 61.86328125 C-12.68484253 63.24290039 -12.68484253 63.24290039 -12.81762695 64.65039062 C-12.97684411 66.38130176 -13.12692649 68.1130859 -13.26635742 69.84570312 C-13.60094236 73.62473107 -13.85728078 75.78592116 -16 79 C-19.62394843 80.1530745 -21.47095681 80.20076511 -25.046875 78.84375 C-28.53479971 76.66610389 -29.17145646 75.45965976 -30.5 71.625 C-31.10908203 69.88089844 -31.10908203 69.88089844 -31.73046875 68.1015625 C-33.49279193 62.55498337 -35.01209589 56.93472594 -36.54321289 51.32080078 C-38.69542851 43.61312254 -41.46604382 36.22213377 -44.5480957 28.83984375 C-47.02205472 22.72876452 -47.02205472 22.72876452 -46.91015625 19.03125 C-46 17 -46 17 -43 15 C-39.57764896 15.14563196 -37.62757631 15.48576523 -34.95605469 17.67480469 C-32.67294556 20.38877515 -31.76046849 22.71859452 -30.640625 26.078125 C-30.24746094 27.23828125 -29.85429688 28.3984375 -29.44921875 29.59375 C-29.05347656 30.8003125 -28.65773438 32.006875 -28.25 33.25 C-27.83878906 34.47203125 -27.42757812 35.6940625 -27.00390625 36.953125 C-25.99197778 39.9653772 -24.99115092 42.98086038 -24 46 C-22.45469692 41.51850289 -21.45598099 37.24410504 -20.6875 32.5625 C-18.7838794 21.76231547 -15.86668168 10.35002393 -10 1 C-6.41318745 -1.29923882 -4.03167688 -1.15190768 0 0 Z M-18 41 C-17 44 -17 44 -17 44 Z " fill="#DDDDDD" transform="translate(84,105)"/>
<path d="M0 0 C2.6490324 0.90823968 4.83352731 2.246073 7.1875 3.75 C7.06065266 9.64467029 7.06065266 9.64467029 4.85986328 12.43066406 C3.04240362 14.15048944 1.16967661 15.77009287 -0.75 17.375 C-8.05035371 23.79875358 -15.40326399 30.93152798 -19.8125 39.75 C-16.8425 39.255 -16.8425 39.255 -13.8125 38.75 C-14.1425 39.74 -14.4725 40.73 -14.8125 41.75 C-13.4160522 40.9802804 -12.02037301 40.20916631 -10.625 39.4375 C-9.39523437 38.75880859 -9.39523437 38.75880859 -8.140625 38.06640625 C-6.35403123 37.05620138 -4.60503108 35.97927516 -2.875 34.875 C-2.194375 34.50375 -1.51375 34.1325 -0.8125 33.75 C0.1775 34.245 0.1775 34.245 1.1875 34.75 C0.40503906 35.31589844 -0.37742187 35.88179687 -1.18359375 36.46484375 C-2.19550781 37.19832031 -3.20742188 37.93179688 -4.25 38.6875 C-5.25933594 39.41839844 -6.26867187 40.14929688 -7.30859375 40.90234375 C-9.63542608 42.52321885 -9.63542608 42.52321885 -10.8125 43.75 C-10.1525 44.08 -9.4925 44.41 -8.8125 44.75 C-13.04000496 49.37383355 -17.86213868 54.25927189 -24.328125 55.0625 C-26.51363144 55.0625 -28.63962877 54.97634075 -30.8125 54.75 C-31.68441947 53.36518672 -32.53440384 51.96654754 -33.375 50.5625 C-33.85066406 49.78519531 -34.32632812 49.00789063 -34.81640625 48.20703125 C-36.05283982 45.15716177 -35.86337358 43.84450792 -34.8125 40.75 C-33.4296875 38.390625 -33.4296875 38.390625 -31.6875 36 C-31.05972656 35.13503906 -30.43195313 34.27007812 -29.78515625 33.37890625 C-26.10719807 28.4773897 -22.39172525 23.62013516 -18.4375 18.9375 C-16.71290593 16.92585762 -16.71290593 16.92585762 -16.37670898 14.79956055 C-15.40111176 11.25558015 -12.45531725 9.04691695 -9.875 6.5625 C-9.32392578 6.01658203 -8.77285156 5.47066406 -8.20507812 4.90820312 C-2.80499567 -0.38689595 -2.80499567 -0.38689595 0 0 Z " fill="#DBDBDB" transform="translate(525.8125,109.25)"/>
<path d="M0 0 C1.18956883 4.15226856 0.78960563 6.38725993 -0.9375 10.3125 C-1.31777344 11.19550781 -1.69804687 12.07851562 -2.08984375 12.98828125 C-2.39019531 13.65214844 -2.69054687 14.31601563 -3 15 C-3.99 15 -4.98 15 -6 15 C-6 16.65 -6 18.3 -6 20 C-4.35 18.35 -2.7 16.7 -1 15 C-1.62816498 18.94949704 -2.8645529 22.19892028 -4.5625 25.8125 C-5.01753906 26.78832031 -5.47257812 27.76414063 -5.94140625 28.76953125 C-6.29074219 29.50558594 -6.64007813 30.24164063 -7 31 C-5.05600216 30.84896172 -5.05600216 30.84896172 -3 30 C-1.64897007 27.9279446 -1.64897007 27.9279446 -0.75 25.4375 C-0.41484375 24.61121094 -0.0796875 23.78492187 0.265625 22.93359375 C0.50796875 22.29550781 0.7503125 21.65742187 1 21 C2.13702419 24.33527097 1.88480118 26.08996202 0.56640625 29.328125 C0.0878418 30.52695313 0.0878418 30.52695313 -0.40039062 31.75 C-0.74263672 32.575 -1.08488281 33.4 -1.4375 34.25 C-1.77587891 35.09046875 -2.11425781 35.9309375 -2.46289062 36.796875 C-3.29873438 38.86882572 -4.14466649 40.93603615 -5 43 C-4.65710938 42.37996094 -4.31421875 41.75992188 -3.9609375 41.12109375 C1.06710456 32.61305214 7.42427949 25.80877871 14.29589844 18.76416016 C15.8534946 17.15166877 17.37324873 15.51278841 18.8828125 13.85546875 C19.72585938 12.95441406 20.56890625 12.05335937 21.4375 11.125 C22.15808594 10.34382813 22.87867188 9.56265625 23.62109375 8.7578125 C26.69039973 6.48985242 29.24484397 6.28289146 33 6 C33.99 7.32 34.98 8.64 36 10 C35.443125 9.649375 34.88625 9.29875 34.3125 8.9375 C31.26206713 7.70083803 30.12885009 7.94963212 27 9 C24.70645043 10.73895115 22.74407806 12.74266653 20.75 14.8125 C20.20859375 15.34681641 19.6671875 15.88113281 19.109375 16.43164062 C16.32445244 19.26181818 14.88937508 21.19930755 14 25 C12.52805987 27.0917044 11.03601296 29.07327875 9.4375 31.0625 C8.53331369 32.22223507 7.6296766 33.38239853 6.7265625 34.54296875 C5.01069259 36.72884838 3.27512156 38.89294962 1.5234375 41.05078125 C-2.80562381 46.36761505 -2.80562381 46.36761505 -4.1875 52.875 C-3.795625 53.90625 -3.40375 54.9375 -3 56 C-2.649375 56.94875 -2.29875 57.8975 -1.9375 58.875 C1.02319036 62.12220878 3.69276718 61.78816888 8 62 C6 64 6 64 2.6875 64.125 C-1.9108704 62.72210734 -2.75312192 61.08466866 -4.95703125 57.0078125 C-5.30121094 56.34523437 -5.64539063 55.68265625 -6 55 C-6.66 54.01 -7.32 53.02 -8 52 C-8.33 53.32 -8.66 54.64 -9 56 C-8.01 56.66 -7.02 57.32 -6 58 C-6.75 62.75 -6.75 62.75 -9 65 C-11.375 65.125 -11.375 65.125 -14 64 C-18.72071131 57.36548681 -18.77981062 50.94966143 -18 43 C-16.77933405 38.14037403 -15.06876701 33.53942213 -13.25 28.875 C-12.8065625 27.69035156 -12.363125 26.50570312 -11.90625 25.28515625 C-11.03513734 22.96133513 -10.15584967 20.64055864 -9.26757812 18.32324219 C-7.45436935 13.56950609 -5.7228195 8.78709887 -4 4 C-4.99 4.99 -5.98 5.98 -7 7 C-7.66 6.67 -8.32 6.34 -9 6 C-7.8803014 4.99406757 -6.7540588 3.9954151 -5.625 3 C-4.99851562 2.443125 -4.37203125 1.88625 -3.7265625 1.3125 C-2 0 -2 0 0 0 Z " fill="#DEDEDE" transform="translate(495,102)"/>
<path d="M0 0 C0.33 0 0.66 0 1 0 C1.19616609 4.4579968 1.38047068 8.91640535 1.5625 13.375 C1.61857422 14.64601563 1.67464844 15.91703125 1.73242188 17.2265625 C1.78076172 18.43828125 1.82910156 19.65 1.87890625 20.8984375 C1.9260376 22.01911621 1.97316895 23.13979492 2.02172852 24.29443359 C2 27 2 27 1 29 C1.66 29 2.32 29 3 29 C3 32.63 3 36.26 3 40 C2.34 40 1.68 40 1 40 C1.144375 41.11375 1.28875 42.2275 1.4375 43.375 C2.04796371 48.24126788 2.52985225 53.11846586 3 58 C3.33 58 3.66 58 4 58 C3.67 64.27 3.34 70.54 3 77 C2.01 76.01 1.02 75.02 0 74 C-1.485 74.495 -1.485 74.495 -3 75 C-2.67 77.64 -2.34 80.28 -2 83 C-2.66 82.67 -3.32 82.34 -4 82 C-4.78125 79.1484375 -4.78125 79.1484375 -5.5 75.375 C-5.85578125 73.56128906 -5.85578125 73.56128906 -6.21875 71.7109375 C-6.4831414 70.14128933 -6.74301076 68.57087705 -7 67 C-7.26683594 65.51608765 -7.26683594 65.51608765 -7.5390625 64.00219727 C-9.49432781 51.75338954 -9.15451318 39.55499242 -9 27.1875 C-8.9469095 22.8476677 -8.90700385 18.50800154 -8.875 14.16796875 C-8.85840332 13.17540573 -8.84180664 12.18284271 -8.82470703 11.16020203 C-8.81810059 10.24777237 -8.81149414 9.33534271 -8.8046875 8.39526367 C-8.79421387 7.59223312 -8.78374023 6.78920258 -8.77294922 5.96183777 C-8.82144759 3.76446924 -8.82144759 3.76446924 -11 2 C-9.68 1.67 -8.36 1.34 -7 1 C-6.34 2.65 -5.68 4.3 -5 6 C-4.34 4.68 -3.68 3.36 -3 2 C-2.67 3.98 -2.34 5.96 -2 8 C-0.03177114 6.03177114 -0.33751619 2.65191291 0 0 Z " fill="#ECECEC" transform="translate(144,80)"/>
<path d="M0 0 C1.32 0.33 2.64 0.66 4 1 C4.85814128 3.89432265 5.26703314 5.41190367 3.99609375 8.2109375 C3.48175781 8.92507812 2.96742188 9.63921875 2.4375 10.375 C1.880625 11.14972656 1.32375 11.92445313 0.75 12.72265625 C-6.84845718 22.6108271 -6.84845718 22.6108271 -12 26 C-13.32 26 -14.64 26 -16 26 C-16.04898438 26.62648437 -16.09796875 27.25296875 -16.1484375 27.8984375 C-16.22320312 28.71570313 -16.29796875 29.53296875 -16.375 30.375 C-16.44460938 31.18710938 -16.51421875 31.99921875 -16.5859375 32.8359375 C-17 35 -17 35 -19 37 C-20.32 37 -21.64 37 -23 37 C-23.33 35.35 -23.66 33.7 -24 32 C-24.70125 32.309375 -25.4025 32.61875 -26.125 32.9375 C-34.58837057 36.06526738 -45.50326205 36.23298442 -54 33 C-55.625 30.375 -55.625 30.375 -56 28 C-53.53670488 26.76835244 -51.95358822 26.90094899 -49.203125 26.9375 C-48.2440625 26.94523437 -47.285 26.95296875 -46.296875 26.9609375 C-44.28124742 26.98677888 -42.26562236 27.01281742 -40.25 27.0390625 C-36.20876257 27.07147884 -32.47370265 27.0842138 -28.484375 26.375 C-26 26 -26 26 -23 28 C-23.15597656 26.83082031 -23.31195313 25.66164062 -23.47265625 24.45703125 C-23.66969018 22.90890748 -23.86628149 21.36072733 -24.0625 19.8125 C-24.16626953 19.04357422 -24.27003906 18.27464844 -24.37695312 17.48242188 C-24.88416982 13.40719806 -25.15145497 10.01801421 -24 6 C-22.35 6 -20.7 6 -19 6 C-17.23384882 10.70973649 -16.51405169 15.03083364 -16 20 C-9.42208315 13.95905595 -4.48717757 7.71909968 0 0 Z " fill="#E4E4E4" transform="translate(410,184)"/>
<path d="M0 0 C0.66 0.33 1.32 0.66 2 1 C-1.94039723 6.35101281 -5.72113563 10.94877851 -11 15 C-11.66 15.66 -12.32 16.32 -13 17 C-12.34 17 -11.68 17 -11 17 C-11 17.66 -11 18.32 -11 19 C-15.38461538 22 -15.38461538 22 -18 22 C-18 22.66 -18 23.32 -18 24 C-17.34 24.33 -16.68 24.66 -16 25 C-17.62339805 26.70884005 -19.29319053 28.37446717 -21 30 C-21.66 30 -22.32 30 -23 30 C-23.26554688 30.72574219 -23.53109375 31.45148438 -23.8046875 32.19921875 C-25.00072948 35.00170928 -26.40329107 37.30479352 -28.125 39.8125 C-28.66382813 40.60269531 -29.20265625 41.39289063 -29.7578125 42.20703125 C-30.16773438 42.79871094 -30.57765625 43.39039063 -31 44 C-31.33 43.34 -31.66 42.68 -32 42 C-29.03 37.545 -29.03 37.545 -26 33 C-26.83144531 33.5053125 -27.66289063 34.010625 -28.51953125 34.53125 C-29.60621094 35.1809375 -30.69289063 35.830625 -31.8125 36.5 C-33.43091797 37.47453125 -33.43091797 37.47453125 -35.08203125 38.46875 C-38 40 -38 40 -41 40 C-41 39.67 -41 39.34 -41 39 C-41.66 38.67 -42.32 38.34 -43 38 C-41.95199219 37.27683594 -41.95199219 37.27683594 -40.8828125 36.5390625 C-39.97273437 35.90742188 -39.06265625 35.27578125 -38.125 34.625 C-37.22007812 33.99851563 -36.31515625 33.37203125 -35.3828125 32.7265625 C-32.96505875 31.0701905 -32.96505875 31.0701905 -31 29 C-31.65226563 29.40992188 -32.30453125 29.81984375 -32.9765625 30.2421875 C-37.54706851 33.05999209 -41.75719663 35.6203149 -47 37 C-46.67 36.01 -46.34 35.02 -46 34 C-46.66 33.67 -47.32 33.34 -48 33 C-39.21195132 26.28491638 -30.45348949 19.76032627 -21 14 C-18.92531677 12.72146472 -16.85323371 11.43888762 -14.78320312 10.15283203 C-13.38049899 9.28169564 -11.97565948 8.41398499 -10.56835938 7.55029297 C-6.84066475 5.24130635 -3.36685282 2.8273764 0 0 Z " fill="#F3F3F3" transform="translate(556,115)"/>
<path d="M0 0 C2.0625 0.1875 2.0625 0.1875 4 1 C5 4 5 4 4.00390625 6.48046875 C3.52824219 7.37378906 3.05257812 8.26710938 2.5625 9.1875 C2.08941406 10.08855469 1.61632812 10.98960937 1.12890625 11.91796875 C0.57009766 12.94857422 0.57009766 12.94857422 0 14 C1.02480469 13.566875 2.04960937 13.13375 3.10546875 12.6875 C4.46595556 12.12453994 5.82664335 11.56206544 7.1875 11 C7.86103516 10.71382813 8.53457031 10.42765625 9.22851562 10.1328125 C12.94993794 8.60793701 15.96471408 7.62389568 20 8 C20.6875 9.8125 20.6875 9.8125 21 12 C18.52877254 15.4447413 14.60475363 16.64701583 10.8125 18.1875 C10.15830078 18.46013672 9.50410156 18.73277344 8.83007812 19.01367188 C7.22278908 19.68239798 5.61175038 20.34209925 4 21 C5.06541016 21.36351562 5.06541016 21.36351562 6.15234375 21.734375 C7.53099609 22.23710937 7.53099609 22.23710937 8.9375 22.75 C9.85402344 23.07484375 10.77054688 23.3996875 11.71484375 23.734375 C14 25 14 25 14.81640625 27.140625 C14.87699219 27.75421875 14.93757813 28.3678125 15 29 C12.49036344 30.60995553 10.69052973 31.13066096 7.74462891 30.57324219 C5.06223442 29.76083331 2.44244796 28.8436318 -0.1875 27.875 C-1.10208984 27.565625 -2.01667969 27.25625 -2.95898438 26.9375 C-9.56677751 24.57722555 -9.56677751 24.57722555 -11.39477539 22.14160156 C-12 20 -12 20 -11.34082031 17.92529297 C-10.92413086 17.20486816 -10.50744141 16.48444336 -10.078125 15.7421875 C-9.62953125 14.95199219 -9.1809375 14.16179687 -8.71875 13.34765625 C-8.2340625 12.53167969 -7.749375 11.71570313 -7.25 10.875 C-6.78078125 10.05128906 -6.3115625 9.22757812 -5.828125 8.37890625 C-2.36142616 2.36142616 -2.36142616 2.36142616 0 0 Z " fill="#DEDEDE" transform="translate(237,363)"/>
<path d="M0 0 C6.39845008 6.17245626 7.86172302 12.60316065 8.01953125 21.14453125 C7.9476266 26.3336498 7.31956304 30.76630493 5.76953125 35.70703125 C5.43953125 35.70703125 5.10953125 35.70703125 4.76953125 35.70703125 C4.43953125 34.05703125 4.10953125 32.40703125 3.76953125 30.70703125 C3.10953125 30.70703125 2.44953125 30.70703125 1.76953125 30.70703125 C2.09953125 27.73703125 2.42953125 24.76703125 2.76953125 21.70703125 C1.77953125 22.20203125 1.77953125 22.20203125 0.76953125 22.70703125 C0.10953125 22.37703125 -0.55046875 22.04703125 -1.23046875 21.70703125 C-1.56046875 24.67703125 -1.89046875 27.64703125 -2.23046875 30.70703125 C-2.89046875 30.70703125 -3.55046875 30.70703125 -4.23046875 30.70703125 C-4.19566406 29.66804688 -4.16085938 28.6290625 -4.125 27.55859375 C-3.58151203 14.60796233 -3.58151203 14.60796233 -8.54296875 2.98828125 C-10.70322368 1.34808769 -12.23176025 1.21418404 -14.91796875 1.01953125 C-15.72621094 0.95378906 -16.53445312 0.88804688 -17.3671875 0.8203125 C-17.98207031 0.78292969 -18.59695312 0.74554688 -19.23046875 0.70703125 C-19.23046875 0.37703125 -19.23046875 0.04703125 -19.23046875 -0.29296875 C-15.76546875 -0.78796875 -15.76546875 -0.78796875 -12.23046875 -1.29296875 C-12.23046875 -1.95296875 -12.23046875 -2.61296875 -12.23046875 -3.29296875 C-13.34421875 -3.12796875 -14.45796875 -2.96296875 -15.60546875 -2.79296875 C-20.48557213 -2.1720237 -25.31908823 -2.20239001 -30.23046875 -2.29296875 C-30.23046875 -2.62296875 -30.23046875 -2.95296875 -30.23046875 -3.29296875 C-8.02319865 -6.35604049 -8.02319865 -6.35604049 0 0 Z " fill="#EEEEEE" transform="translate(124.23046875,100.29296875)"/>
<path d="M0 0 C0.33 0 0.66 0 1 0 C1.01981934 0.68288086 1.03963867 1.36576172 1.06005859 2.06933594 C1.50639611 16.79107622 2.29898769 31.3679912 4 46 C4.598125 45.175 5.19625 44.35 5.8125 43.5 C6.534375 42.675 7.25625 41.85 8 41 C8.99 41 9.98 41 11 41 C12 42 12 42 12.08984375 44.14453125 C11.6811063 51.30267689 11.6811063 51.30267689 8.375 54.6875 C3.35583528 56.63939739 0.05506138 55.86769258 -4.8125 53.8125 C-7.66575424 51.44837506 -8.2656324 49.59840122 -9 46 C-8.625 43.625 -8.625 43.625 -8 42 C-7.34 42.33 -6.68 42.66 -6 43 C-6 41.35 -6 39.7 -6 38 C-5.01 38.66 -4.02 39.32 -3 40 C-1.34354089 39.02875843 -1.34354089 39.02875843 0 37 C0.26163168 34.12917843 0.34888634 31.48013507 0.29296875 28.61328125 C0.28872391 27.79627243 0.28447906 26.97926361 0.28010559 26.13749695 C0.26331691 23.52882893 0.22566519 20.92093438 0.1875 18.3125 C0.17245337 16.54363095 0.15876492 14.77474979 0.14648438 13.00585938 C0.11341286 8.67027504 0.0616299 4.33526864 0 0 Z " fill="#E4E4E4" transform="translate(149,112)"/>
<path d="M0 0 C1.32 0.33 2.64 0.66 4 1 C4.85814128 3.89432265 5.26703314 5.41190367 3.99609375 8.2109375 C3.48175781 8.92507812 2.96742188 9.63921875 2.4375 10.375 C1.880625 11.14972656 1.32375 11.92445313 0.75 12.72265625 C-6.84845718 22.6108271 -6.84845718 22.6108271 -12 26 C-13.32 26 -14.64 26 -16 26 C-16.04898437 26.62648437 -16.09796875 27.25296875 -16.1484375 27.8984375 C-16.22320312 28.71570313 -16.29796875 29.53296875 -16.375 30.375 C-16.44460938 31.18710938 -16.51421875 31.99921875 -16.5859375 32.8359375 C-17 35 -17 35 -19 37 C-20.32 37 -21.64 37 -23 37 C-23 36.34 -23 35.68 -23 35 C-21.68 35 -20.36 35 -19 35 C-18.97278169 31.9999376 -18.95305622 29.00012744 -18.9375 26 C-18.92912109 25.16082031 -18.92074219 24.32164062 -18.91210938 23.45703125 C-18.89175967 18.20680661 -19.23631793 13.19544338 -20 8 C-20.99 7.67 -21.98 7.34 -23 7 C-23 12.28 -23 17.56 -23 23 C-23.33 23 -23.66 23 -24 23 C-24.19436491 20.54203147 -24.3807742 18.08390706 -24.5625 15.625 C-24.61857422 14.92632812 -24.67464844 14.22765625 -24.73242188 13.5078125 C-25.11328125 8.2265625 -25.11328125 8.2265625 -24 6 C-22.35 6 -20.7 6 -19 6 C-17.23384882 10.70973649 -16.51405169 15.03083364 -16 20 C-9.42208315 13.95905595 -4.48717757 7.71909968 0 0 Z " fill="#ECECEC" transform="translate(410,184)"/>
<path d="M0 0 C1.8125 2 1.8125 2 3 4 C2.443125 3.649375 1.88625 3.29875 1.3125 2.9375 C-1.73793287 1.70083803 -2.87114991 1.94963212 -6 3 C-8.29354957 4.73895115 -10.25592194 6.74266653 -12.25 8.8125 C-12.79140625 9.34681641 -13.3328125 9.88113281 -13.890625 10.43164062 C-16.67554756 13.26181818 -18.11062492 15.19930755 -19 19 C-20.47194013 21.0917044 -21.96398704 23.07327875 -23.5625 25.0625 C-24.46668631 26.22223507 -25.3703234 27.38239853 -26.2734375 28.54296875 C-27.98930741 30.72884838 -29.72487844 32.89294962 -31.4765625 35.05078125 C-35.80562381 40.36761505 -35.80562381 40.36761505 -37.1875 46.875 C-36.5996875 48.421875 -36.5996875 48.421875 -36 50 C-35.649375 50.94875 -35.29875 51.8975 -34.9375 52.875 C-31.97680964 56.12220878 -29.30723282 55.78816888 -25 56 C-27 58 -27 58 -30.3125 58.125 C-34.9108704 56.72210734 -35.75312192 55.08466866 -37.95703125 51.0078125 C-38.30121094 50.34523437 -38.64539063 49.68265625 -39 49 C-39.66 48.01 -40.32 47.02 -41 46 C-41.6814823 47.89179203 -41.6814823 47.89179203 -42 50 C-41.34 50.66 -40.68 51.32 -40 52 C-41.32 52 -42.64 52 -44 52 C-44.48084536 46.22042732 -42.76208269 41.64946386 -40.8125 36.3125 C-40.49659912 35.42852539 -40.18069824 34.54455078 -39.85522461 33.63378906 C-37.5468005 27.2653196 -35.02028475 21.06840623 -32 15 C-30.86297581 18.33527097 -31.11519882 20.08996202 -32.43359375 23.328125 C-32.75263672 24.12734375 -33.07167969 24.9265625 -33.40039062 25.75 C-33.74263672 26.575 -34.08488281 27.4 -34.4375 28.25 C-34.77587891 29.09046875 -35.11425781 29.9309375 -35.46289062 30.796875 C-36.29873438 32.86882572 -37.14466649 34.93603615 -38 37 C-37.48566406 36.06994141 -37.48566406 36.06994141 -36.9609375 35.12109375 C-31.52450419 25.92200585 -24.43683638 18.60093065 -17 11 C-16.47809082 10.46294434 -15.95618164 9.92588867 -15.41845703 9.37255859 C-5.62534668 -0.68601789 -5.62534668 -0.68601789 0 0 Z " fill="#F6F6F6" transform="translate(528,108)"/>
<path d="M0 0 C0.598125 0.226875 1.19625 0.45375 1.8125 0.6875 C1.30117859 5.63768407 -0.18511686 8.77714741 -2.875 12.9375 C-3.59820057 14.07126756 -4.32085032 15.20538664 -5.04296875 16.33984375 C-5.75066406 17.44457031 -6.45835937 18.54929687 -7.1875 19.6875 C-8.3619486 21.62029276 -9.52959019 23.55725395 -10.6875 25.5 C-11.41453125 26.71623047 -11.41453125 26.71623047 -12.15625 27.95703125 C-12.4965625 28.52808594 -12.836875 29.09914063 -13.1875 29.6875 C-14.1875 27.6875 -14.1875 27.6875 -14.1875 26.6875 C-14.950625 27.6775 -15.71375 28.6675 -16.5 29.6875 C-17.80078125 31.375 -17.80078125 31.375 -19.1875 32.6875 C-20.1775 32.6875 -21.1675 32.6875 -22.1875 32.6875 C-24.37527466 34.6250006 -24.37527466 34.6250006 -26.1875 36.6875 C-26.8475 36.3575 -27.5075 36.0275 -28.1875 35.6875 C-25.8775 33.0475 -23.5675 30.4075 -21.1875 27.6875 C-21.8475 27.6875 -22.5075 27.6875 -23.1875 27.6875 C-21.74890464 23.41837107 -19.61935127 20.45358699 -16.75 17 C-15.96753906 16.04738281 -15.18507813 15.09476563 -14.37890625 14.11328125 C-12.1875 11.6875 -12.1875 11.6875 -9.1875 9.6875 C-8.16275852 7.92622558 -7.13982411 6.16349715 -6.15625 4.37890625 C-3.37231244 -0.48175892 -3.37231244 -0.48175892 0 0 Z " fill="#F4F4F4" transform="translate(271.1875,84.3125)"/>
<path d="M0 0 C0.66 0.33 1.32 0.66 2 1 C1.38125 1.5259375 1.38125 1.5259375 0.75 2.0625 C-1.70762407 4.78344094 -3.24051885 7.78439652 -5 11 C-3.35 10.01 -1.7 9.02 0 8 C-1.45044271 12.10958767 -3.51110752 15.43258745 -6 19 C-4.625 17 -4.625 17 -3 15 C-2.34 15 -1.68 15 -1 15 C-2.68970089 18.66398299 -4.87300211 21.90832572 -7.125 25.25 C-7.84945313 26.32765625 -8.57390625 27.4053125 -9.3203125 28.515625 C-9.87460937 29.33546875 -10.42890625 30.1553125 -11 31 C-11.33 30.34 -11.66 29.68 -12 29 C-11.67 28.01 -11.34 27.02 -11 26 C-11.66 26 -12.32 26 -13 26 C-13.33 27.65 -13.66 29.3 -14 31 C-14.33 31 -14.66 31 -15 31 C-15.33 32.98 -15.66 34.96 -16 37 C-16.33 37 -16.66 37 -17 37 C-17.02712066 35.56260487 -17.04645067 34.12506137 -17.0625 32.6875 C-17.07410156 31.88699219 -17.08570313 31.08648437 -17.09765625 30.26171875 C-17 28 -17 28 -16 25 C-16.66 24.67 -17.32 24.34 -18 24 C-16.68 23.34 -15.36 22.68 -14 22 C-14 21.34 -14 20.68 -14 20 C-13.34 20.33 -12.68 20.66 -12 21 C-12 21.33 -12 21.66 -12 22 C-10.35 19.36 -8.7 16.72 -7 14 C-8.65 14.66 -10.3 15.32 -12 16 C-12 16.66 -12 17.32 -12 18 C-13.53125 19.2890625 -13.53125 19.2890625 -15.5 20.625 C-16.1496875 21.07101563 -16.799375 21.51703125 -17.46875 21.9765625 C-17.9740625 22.31429687 -18.479375 22.65203125 -19 23 C-19.66 22.67 -20.32 22.34 -21 22 C-23.11842762 22.9179853 -25.06254391 24.03601013 -27.0625 25.1875 C-29 26 -29 26 -32 25 C-31.18015625 24.54109375 -30.3603125 24.0821875 -29.515625 23.609375 C-28.43796875 22.99578125 -27.3603125 22.3821875 -26.25 21.75 C-25.18265625 21.14671875 -24.1153125 20.5434375 -23.015625 19.921875 C-20.25612421 18.16322942 -18.19437901 16.40742552 -16 14 C-16.66 13.67 -17.32 13.34 -18 13 C-16.59447701 11.96387729 -15.17508306 10.94655075 -13.75 9.9375 C-12.96109375 9.36902344 -12.1721875 8.80054687 -11.359375 8.21484375 C-9 7 -9 7 -6.703125 7.31640625 C-6.14109375 7.54199219 -5.5790625 7.76757812 -5 8 C-4.9175 7.4225 -4.835 6.845 -4.75 6.25 C-3.79468987 3.3840696 -2.21530827 2.0009236 0 0 Z " fill="#F0F0F0" transform="translate(452,104)"/>
<path d="M0 0 C0.99 0.33 1.98 0.66 3 1 C4.26869798 6.89205136 3.53020693 10.97119661 1.8125 16.6875 C-1.01980588 26.69471511 -3.07324256 36.78495636 -5 47 C-5.33 47 -5.66 47 -6 47 C-6 43.7 -6 40.4 -6 37 C-5.34 37 -4.68 37 -4 37 C-4.66 34.36 -5.32 31.72 -6 29 C-7.29687905 34.44689202 -8.26822398 39.66242532 -8.65625 45.25 C-8.7696875 45.8275 -8.883125 46.405 -9 47 C-9.99 47.495 -9.99 47.495 -11 48 C-11.53341184 46.42085985 -12.05125763 44.83645613 -12.5625 43.25 C-12.85253906 42.36828125 -13.14257812 41.4865625 -13.44140625 40.578125 C-14.01697435 37.92165684 -13.89248371 36.52968894 -13 34 C-12.34 35.65 -11.68 37.3 -11 39 C-9.38706349 34.54554981 -8.45415827 30.23300102 -7.6875 25.5625 C-6.1744152 16.87702669 -3.96039994 7.92079988 0 0 Z " fill="#EEEEEE" transform="translate(71,112)"/>
<path d="M0 0 C-1.5625 1.20442708 -3.125 2.40885417 -4.6875 3.61328125 C-6.34370205 5.04491137 -6.34370205 5.04491137 -6 8 C-7.46875 9.359375 -7.46875 9.359375 -9.5 10.75 C-13.31517565 13.44903384 -16.73065237 16.39046596 -20.140625 19.58203125 C-22 21 -22 21 -24.109375 21.51171875 C-26.40131061 21.87948184 -26.40131061 21.87948184 -28 25 C-28.99 25 -29.98 25 -31 25 C-31 24.01 -31 23.02 -31 22 C-31.66 21.67 -32.32 21.34 -33 21 C-10.07608101 -3.52326218 -10.07608101 -3.52326218 0 0 Z " fill="#F4F4F4" transform="translate(500,90)"/>
<path d="M0 0 C1.18956883 4.15226856 0.78960563 6.38725993 -0.9375 10.3125 C-1.31777344 11.19550781 -1.69804687 12.07851562 -2.08984375 12.98828125 C-2.39019531 13.65214844 -2.69054687 14.31601563 -3 15 C-3.99 15 -4.98 15 -6 15 C-6 16.65 -6 18.3 -6 20 C-4.35 18.35 -2.7 16.7 -1 15 C-1.61116402 19.36778552 -3.2392963 22.62883592 -5.3125 26.5 C-8.77861581 33.14049798 -11.06097272 39.74972409 -13 47 C-13.66 46.67 -14.32 46.34 -15 46 C-14.505 43.03 -14.505 43.03 -14 40 C-14.66 40 -15.32 40 -16 40 C-14.68873529 33.23879134 -12.66330562 27.21482533 -10 20.875 C-7.67936062 15.30042062 -5.52175621 9.84925044 -4 4 C-4.99 4.99 -5.98 5.98 -7 7 C-7.66 6.67 -8.32 6.34 -9 6 C-7.8803014 4.99406757 -6.7540588 3.9954151 -5.625 3 C-4.99851562 2.443125 -4.37203125 1.88625 -3.7265625 1.3125 C-2 0 -2 0 0 0 Z " fill="#EEEEEE" transform="translate(495,102)"/>
<path d="M0 0 C0.81658081 0.57826538 0.81658081 0.57826538 1.6496582 1.16821289 C1.05458765 4.03394742 0.16944463 5.75786265 -2.13842773 7.57983398 C-4.46676046 9.07205077 -6.8280738 10.47700243 -9.2253418 11.85571289 C-10.04131836 12.34104492 -10.85729492 12.82637695 -11.69799805 13.32641602 C-13.90360085 14.63070805 -16.11264437 15.9198105 -18.3503418 17.16821289 C-19.04144043 17.555979 -19.73253906 17.94374512 -20.44458008 18.34326172 C-23.0301281 19.46247345 -24.69313997 18.90632451 -27.3503418 18.16821289 C-27.17578125 15.89453125 -27.17578125 15.89453125 -26.3503418 13.16821289 C-24.09716797 11.28369141 -24.09716797 11.28369141 -21.14331055 9.54711914 C-20.08176758 8.92256836 -19.02022461 8.29801758 -17.92651367 7.65454102 C-16.80825195 7.01967773 -15.68999023 6.38481445 -14.5378418 5.73071289 C-13.43118164 5.0687793 -12.32452148 4.4068457 -11.18432617 3.72485352 C-10.11891602 3.10932617 -9.05350586 2.49379883 -7.95581055 1.85961914 C-6.97765381 1.2944458 -5.99949707 0.72927246 -4.99169922 0.14697266 C-2.3503418 -0.83178711 -2.3503418 -0.83178711 0 0 Z " fill="#E4E4E4" transform="translate(291.350341796875,351.831787109375)"/>
<path d="M0 0 C0.34375 2.1015625 0.34375 2.1015625 0 5 C-1.76841021 7.32840678 -3.46653941 9.30700209 -5.5 11.375 C-6.31887695 12.22892334 -6.31887695 12.22892334 -7.15429688 13.10009766 C-8.75288419 14.75093562 -10.37097572 16.37924488 -12 18 C-12.804375 18.804375 -13.60875 19.60875 -14.4375 20.4375 C-18.21428571 23.98538961 -18.21428571 23.98538961 -20 25 C-22.21875 24.6640625 -22.21875 24.6640625 -24 24 C-23.51326179 19.57300008 -22.19052307 17.7865331 -18.9375 14.8125 C-14.73202243 10.82165605 -11.20183288 6.60244385 -7.7265625 1.96875 C-5.11107493 -1.01361592 -3.742035 -1.247345 0 0 Z " fill="#E4E4E4" transform="translate(352,299)"/>
<path d="M0 0 C1.32 0 2.64 0 4 0 C5.57568518 5.71643926 4.1824649 9.62810215 2.25 15 C1.98445313 15.78117188 1.71890625 16.56234375 1.4453125 17.3671875 C-0.07718818 21.75731081 -1.81222928 25.8880454 -4 30 C-5.65 30 -7.3 30 -9 30 C-10.42389697 26.21066975 -9.53509885 23.89603225 -8.1640625 20.17578125 C-7.75929688 19.06525391 -7.35453125 17.95472656 -6.9375 16.81054688 C-6.2878125 15.07901367 -6.2878125 15.07901367 -5.625 13.3125 C-4.98691406 11.56356445 -4.98691406 11.56356445 -4.3359375 9.77929688 C-1.16524338 1.16524338 -1.16524338 1.16524338 0 0 Z " fill="#E3E3E3" transform="translate(385,229)"/>
<path d="M0 0 C0.8971875 0.309375 0.8971875 0.309375 1.8125 0.625 C2.24591623 5.09678513 2.24591623 5.09678513 0.33129883 7.43017578 C-0.68927612 8.24204346 -0.68927612 8.24204346 -1.73046875 9.0703125 C-2.47490234 9.67230469 -3.21933594 10.27429688 -3.98632812 10.89453125 C-5.1687207 11.81298828 -5.1687207 11.81298828 -6.375 12.75 C-7.14392578 13.37003906 -7.91285156 13.99007813 -8.70507812 14.62890625 C-16.2399224 20.64384632 -16.2399224 20.64384632 -20.1875 22.625 C-22.5 22.3125 -22.5 22.3125 -24.1875 21.625 C-23.68720981 17.60211863 -22.89365342 15.86157913 -19.75 13.3125 C-19.03585937 12.7246875 -18.32171875 12.136875 -17.5859375 11.53125 C-16.79445313 10.9021875 -16.00296875 10.273125 -15.1875 9.625 C-14.31351562 8.9134375 -13.43953125 8.201875 -12.5390625 7.46875 C-2.73259974 -0.46844567 -2.73259974 -0.46844567 0 0 Z " fill="#E3E3E3" transform="translate(322.1875,327.375)"/>
<path d="M0 0 C7.06401156 0.25687315 11.68675093 2.30207205 17 7 C19.43587769 9.79438388 21.61777661 12.54444153 23 16 C22.6484375 18.77734375 22.6484375 18.77734375 22 21 C21.01 21.33 20.02 21.66 19 22 C16.63377805 19.8027939 14.91239188 17.85294351 13.25 15.0625 C10.38140435 11.15802259 7.17161465 9.32949571 3 7 C2.01 6.401875 1.02 5.80375 0 5.1875 C-0.66 4.795625 -1.32 4.40375 -2 4 C-1.34 2.68 -0.68 1.36 0 0 Z " fill="#E3E3E3" transform="translate(365,160)"/>
<path d="M0 0 C-0.12109375 2.29296875 -0.12109375 2.29296875 -1 5 C-3.66015625 6.73828125 -3.66015625 6.73828125 -7.0625 8.3125 C-12.59908739 11.06258124 -16.35907213 13.86962731 -20.31640625 18.59375 C-20.87199219 19.0578125 -21.42757813 19.521875 -22 20 C-24.21484375 19.71875 -24.21484375 19.71875 -26 19 C-25.76067283 14.9065082 -25.548077 12.62930984 -22.8125 9.48828125 C-7.02995329 -2.72127224 -7.02995329 -2.72127224 0 0 Z " fill="#E2E2E2" transform="translate(355,162)"/>
<path d="M0 0 C1.94140625 0.16796875 1.94140625 0.16796875 4 1 C5.08984375 2.92578125 5.08984375 2.92578125 5.9375 5.3125 C7.99823224 10.34896143 10.36989998 12.49148825 15.09765625 15.203125 C15.82855469 15.63109375 16.55945313 16.0590625 17.3125 16.5 C18.00988281 16.8815625 18.70726562 17.263125 19.42578125 17.65625 C19.94527344 18.0996875 20.46476562 18.543125 21 19 C21 20.32 21 21.64 21 23 C18.01893224 23.89272617 16.47343055 24.18607096 13.53515625 23.03125 C6.85686257 18.89556102 -0.08185111 14.09885087 -2 6 C-1.48717949 1.48717949 -1.48717949 1.48717949 0 0 Z " fill="#E3E3E3" transform="translate(326,189)"/>
<path d="M0 0 C1.32 0.33 2.64 0.66 4 1 C4.80688469 3.30493066 5.19181599 4.51652038 4.27490234 6.82763672 C3.88254395 7.43881348 3.49018555 8.04999023 3.0859375 8.6796875 C2.43818359 9.70255859 2.43818359 9.70255859 1.77734375 10.74609375 C1.31457031 11.44863281 0.85179687 12.15117187 0.375 12.875 C-0.06457031 13.56980469 -0.50414062 14.26460938 -0.95703125 14.98046875 C-3.69929157 19.2506747 -6.54000703 23.28007433 -10 27 C-12.8125 27.375 -12.8125 27.375 -15 27 C-15.36098618 22.73585077 -14.56363401 20.81943683 -12 17.4375 C-9.07715249 13.47462087 -6.28107709 9.47951835 -3.5625 5.375 C-2.88316406 4.35148437 -2.20382812 3.32796875 -1.50390625 2.2734375 C-1.00761719 1.52320313 -0.51132812 0.77296875 0 0 Z " fill="#E1E1E1" transform="translate(370,266)"/>
<path d="M0 0 C0 4.14325839 -2.18226842 6.36794497 -4.5625 9.5625 C-5.4822745 10.81994424 -6.40154226 12.07775929 -7.3203125 13.3359375 C-8.00335449 14.2655127 -8.00335449 14.2655127 -8.70019531 15.21386719 C-11.0428888 18.43309062 -13.27967781 21.72581891 -15.52734375 25.01171875 C-16.89672176 26.86056068 -18.3266247 28.4265277 -20 30 C-20 28.68 -20 27.36 -20 26 C-20.99 26.33 -21.98 26.66 -23 27 C-23.309375 27.804375 -23.61875 28.60875 -23.9375 29.4375 C-25.20206032 32.48732196 -26.08107459 32.73218391 -29 34 C-24.38359253 25.53921225 -19.12719655 17.85104925 -13.35546875 10.15234375 C-11.85146284 8.13951993 -10.39377666 6.090665 -9 4 C-7.824375 4.0309375 -7.824375 4.0309375 -6.625 4.0625 C-3.82158143 4.2741435 -3.82158143 4.2741435 -1.6875 2 C-1.130625 1.34 -0.57375 0.68 0 0 Z " fill="#E3E3E3" transform="translate(556,135)"/>
<path d="M0 0 C0 0.66 0 1.32 0 2 C-4.38461538 5 -4.38461538 5 -7 5 C-7 5.66 -7 6.32 -7 7 C-6.34 7.33 -5.68 7.66 -5 8 C-6.62339805 9.70884005 -8.29319053 11.37446717 -10 13 C-10.66 13 -11.32 13 -12 13 C-12.26554688 13.72574219 -12.53109375 14.45148438 -12.8046875 15.19921875 C-14.00072948 18.00170928 -15.40329107 20.30479352 -17.125 22.8125 C-17.93324219 23.99779297 -17.93324219 23.99779297 -18.7578125 25.20703125 C-19.16773438 25.79871094 -19.57765625 26.39039063 -20 27 C-20.33 26.34 -20.66 25.68 -21 25 C-19.02 22.03 -17.04 19.06 -15 16 C-15.83144531 16.5053125 -16.66289063 17.010625 -17.51953125 17.53125 C-18.60621094 18.1809375 -19.69289063 18.830625 -20.8125 19.5 C-21.89144531 20.1496875 -22.97039063 20.799375 -24.08203125 21.46875 C-27 23 -27 23 -30 23 C-30 22.67 -30 22.34 -30 22 C-30.66 21.67 -31.32 21.34 -32 21 C-30.96939453 20.29423828 -30.96939453 20.29423828 -29.91796875 19.57421875 C-29.01691406 18.95160156 -28.11585938 18.32898438 -27.1875 17.6875 C-25.84751953 16.76517578 -25.84751953 16.76517578 -24.48046875 15.82421875 C-21.75824573 13.82220592 -19.61966863 11.69116886 -17.375 9.1875 C-12.53924025 4.73351076 -6.85213899 0 0 0 Z " fill="#E0E0E0" transform="translate(545,132)"/>
<path d="M0 0 C1.65 0.33 3.3 0.66 5 1 C6.49348871 5.75830886 5.2895891 9.67632632 4.25 14.4375 C4.07984375 15.28376953 3.9096875 16.13003906 3.734375 17.00195312 C2.78330457 21.46708891 1.86880298 25.32340249 -1 29 C-1.66 29 -2.32 29 -3 29 C-3.66 30.98 -4.32 32.96 -5 35 C-5.33 35 -5.66 35 -6 35 C-6.27892 27.99124106 -5.31553008 22.02065611 -3.5625 15.25 C-3.10486553 13.42202591 -2.64781492 11.59390553 -2.19140625 9.765625 C-1.98717041 8.96930664 -1.78293457 8.17298828 -1.57250977 7.35253906 C-0.97877402 4.91277888 -0.47635334 2.46512171 0 0 Z " fill="#F2F2F2" transform="translate(386,67)"/>
<path d="M0 0 C1.67542976 0.28604898 3.34385343 0.61781233 5 1 C7.65547571 8.96642714 6.15245945 18.06280576 4 26 C2.35 26.33 0.7 26.66 -1 27 C-2.31726929 24.36546142 -2.03537578 22.53181067 -1.9140625 19.58984375 C-1.87023437 18.51798828 -1.82640625 17.44613281 -1.78125 16.34179688 C-1.7296875 15.21837891 -1.678125 14.09496094 -1.625 12.9375 C-1.58117187 11.81021484 -1.53734375 10.68292969 -1.4921875 9.52148438 C-1.12836788 1.12836788 -1.12836788 1.12836788 0 0 Z " fill="#E4E4E4" transform="translate(415,150)"/>
<path d="M0 0 C1.28396491 0.54270682 2.56781557 1.085684 3.8515625 1.62890625 C8.11921797 3.03401873 12.6201358 3.12542285 17.08203125 3.36328125 C15.77141534 7.59757881 14.13846866 11.43735529 12.08203125 15.36328125 C11.08203125 12.36328125 11.08203125 12.36328125 12.08203125 9.36328125 C11.07140625 9.42515625 10.06078125 9.48703125 9.01953125 9.55078125 C4.7060941 9.34537948 1.98141619 8.12904047 -1.91796875 6.36328125 C-3.23796875 6.36328125 -4.55796875 6.36328125 -5.91796875 6.36328125 C-5.25796875 5.04328125 -4.59796875 3.72328125 -3.91796875 2.36328125 C-7.91997253 0.76247974 -10.96353111 2.07048433 -14.91796875 3.36328125 C-10.68675141 -1.06026415 -5.87453483 -1.95020199 0 0 Z " fill="#E6E6E6" transform="translate(202.91796875,80.63671875)"/>
<path d="M0 0 C1.65 0 3.3 0 5 0 C5.6875 1.8125 5.6875 1.8125 6 4 C3.52877254 7.4447413 -0.39524637 8.64701583 -4.1875 10.1875 C-4.84169922 10.46013672 -5.49589844 10.73277344 -6.16992188 11.01367188 C-7.77721092 11.68239798 -9.38824962 12.34209925 -11 13 C-10.28972656 13.24234375 -9.57945312 13.4846875 -8.84765625 13.734375 C-7.92855469 14.06953125 -7.00945312 14.4046875 -6.0625 14.75 C-5.14597656 15.07484375 -4.22945312 15.3996875 -3.28515625 15.734375 C-1 17 -1 17 -0.18359375 19.140625 C-0.12300781 19.75421875 -0.06242187 20.3678125 0 21 C-3.14046678 22.66637013 -4.58300701 23.09103737 -8.11328125 22.3203125 C-9.16902344 21.92585938 -10.22476563 21.53140625 -11.3125 21.125 C-12.38113281 20.73570312 -13.44976562 20.34640625 -14.55078125 19.9453125 C-15.35902344 19.63335937 -16.16726562 19.32140625 -17 19 C-16.67 16.69 -16.34 14.38 -16 12 C-13.04380781 10.8278551 -10.08471211 9.66322524 -7.125 8.5 C-6.28324219 8.16613281 -5.44148437 7.83226562 -4.57421875 7.48828125 C-3.36572266 7.01455078 -3.36572266 7.01455078 -2.1328125 6.53125 C-1.38918457 6.23798828 -0.64555664 5.94472656 0.12060547 5.64257812 C2 5 2 5 4 5 C4 3.68 4 2.36 4 1 C2.68 0.67 1.36 0.34 0 0 Z " fill="#E3E3E3" transform="translate(252,371)"/>
<path d="M0 0 C0.33 0 0.66 0 1 0 C1.144375 1.0725 1.28875 2.145 1.4375 3.25 C1.83749442 5.91662949 2.27591924 8.41399729 3 11 C2.34 11 1.68 11 1 11 C1.33 14.3 1.66 17.6 2 21 C2.33 21 2.66 21 3 21 C3 26.61 3 32.22 3 38 C2.67 38 2.34 38 2 38 C2.33 41.96 2.66 45.92 3 50 C2.01 50 1.02 50 0 50 C-0.33 44.06 -0.66 38.12 -1 32 C-1.33 32 -1.66 32 -2 32 C-2 24 -2 16 -2 8 C-1.67 8 -1.34 8 -1 8 C-0.67 5.36 -0.34 2.72 0 0 Z " fill="#FAFAFA" transform="translate(140,82)"/>
<path d="M0 0 C0.33 0 0.66 0 1 0 C1.19616609 4.4579968 1.38047068 8.91640535 1.5625 13.375 C1.61857422 14.64601563 1.67464844 15.91703125 1.73242188 17.2265625 C1.78076172 18.43828125 1.82910156 19.65 1.87890625 20.8984375 C1.94960327 22.57945557 1.94960327 22.57945557 2.02172852 24.29443359 C2 27 2 27 1 29 C1.66 29 2.32 29 3 29 C3 32.63 3 36.26 3 40 C2.34 39.34 1.68 38.68 1 38 C0.67 41.96 0.34 45.92 0 50 C-2.7558573 45.86621405 -3.10756445 43.94796454 -3 39 C-2.67 39 -2.34 39 -2 39 C-2 34.05 -2 29.1 -2 24 C-2.33 24 -2.66 24 -3 24 C-3 20.37 -3 16.74 -3 13 C-2.34 13 -1.68 13 -1 13 C-1.2784375 11.7934375 -1.2784375 11.7934375 -1.5625 10.5625 C-1.706875 9.716875 -1.85125 8.87125 -2 8 C-1.67 7.67 -1.34 7.34 -1 7 C-0.63239269 4.67182036 -0.29758419 2.3381615 0 0 Z " fill="#EDEDED" transform="translate(144,80)"/>
<path d="M0 0 C1.32 0.33 2.64 0.66 4 1 C5.36083092 9.33508938 6.59273286 19.85141101 4 28 C2.68 28 1.36 28 0 28 C0 18.76 0 9.52 0 0 Z " fill="#D9D9D9" transform="translate(387,191)"/>
<path d="M0 0 C0 3.84352134 -0.10821829 4.61175227 -1.875 7.6875 C-4.15605355 11.9826753 -5.16171439 16.23500811 -6 21 C-6.33 21 -6.66 21 -7 21 C-7.33 18.36 -7.66 15.72 -8 13 C-8.99 13 -9.98 13 -11 13 C-12.20408163 5.7755102 -12.20408163 5.7755102 -11.375 2.625 C-8.13232591 -1.2072512 -4.58482231 -1.30994923 0 0 Z " fill="#E4E4E4" transform="translate(84,105)"/>
<path d="M0 0 C0.66 0 1.32 0 2 0 C2 2.31 2 4.62 2 7 C1.01 7.33 0.02 7.66 -1 8 C-1.33 9.65 -1.66 11.3 -2 13 C-3.65 12.67 -5.3 12.34 -7 12 C-7.33 13.65 -7.66 15.3 -8 17 C-8.66 17 -9.32 17 -10 17 C-10.268125 17.78375 -10.53625 18.5675 -10.8125 19.375 C-12 22 -12 22 -15 24 C-15.33 23.01 -15.66 22.02 -16 21 C-16.99 21.66 -17.98 22.32 -19 23 C-17.6472843 20.0025564 -16.11727792 17.84047674 -13.84765625 15.46875 C-12.93016602 14.50001953 -12.93016602 14.50001953 -11.99414062 13.51171875 C-11.35669922 12.84785156 -10.71925781 12.18398437 -10.0625 11.5 C-8.80158608 10.17879823 -7.5424139 8.85593156 -6.28515625 7.53125 C-5.72707275 6.94923828 -5.16898926 6.36722656 -4.59399414 5.76757812 C-2.92578085 3.98585413 -2.92578085 3.98585413 -1.41967773 1.77929688 C-0.95118408 1.19212891 -0.48269043 0.60496094 0 0 Z " fill="#EAEAEA" transform="translate(344,71)"/>
<path d="M0 0 C0.99 0.33 1.98 0.66 3 1 C2.04882866 2.1725131 1.08882991 3.33787015 0.125 4.5 C-0.67550781 5.47453125 -0.67550781 5.47453125 -1.4921875 6.46875 C-1.98976563 6.9740625 -2.48734375 7.479375 -3 8 C-3.66 8 -4.32 8 -5 8 C-5.33 9.32 -5.66 10.64 -6 12 C-6.66 12 -7.32 12 -8 12 C-8.2475 12.70125 -8.495 13.4025 -8.75 14.125 C-10.17950641 17.41286474 -11.81698049 20.15545943 -14 23 C-14.99 23 -15.98 23 -17 23 C-16.67 23.99 -16.34 24.98 -16 26 C-17.32 25.67 -18.64 25.34 -20 25 C-20.28875 25.804375 -20.5775 26.60875 -20.875 27.4375 C-22 30 -22 30 -24 31 C-22.51177855 26.73323744 -20.34625617 23.37436038 -17.75 19.6875 C-17.35176025 19.1200708 -16.95352051 18.5526416 -16.54321289 17.96801758 C-13.44958475 13.57981738 -10.27682938 9.25345304 -7 5 C-6.67 5.66 -6.34 6.32 -6 7 C-5.34 7 -4.68 7 -4 7 C-3.71125 6.401875 -3.4225 5.80375 -3.125 5.1875 C-2 3 -2 3 0 0 Z " fill="#F0F0F0" transform="translate(381,65)"/>
<path d="M0 0 C0.33 0.99 0.66 1.98 1 3 C-3.65855821 7.14094063 -8.68434041 10.51844743 -13.890625 13.9375 C-17.59966398 16.39776706 -21.22634463 18.96221365 -24.84375 21.5546875 C-26.8408344 22.89331291 -28.82531324 23.9818512 -31 25 C-30.3125 22.5625 -30.3125 22.5625 -29 20 C-26.375 19.1875 -26.375 19.1875 -24 19 C-24 18.34 -24 17.68 -24 17 C-23.34 17 -22.68 17 -22 17 C-21.814375 16.4225 -21.62875 15.845 -21.4375 15.25 C-19.68922805 12.51357435 -17.61605468 11.49102583 -14.7890625 9.99609375 C-12.29815491 8.60923472 -10.21860761 6.78570856 -8 5 C-5.36619392 3.27865483 -2.69140318 1.62953443 0 0 Z " fill="#FBFBFB" transform="translate(550,122)"/>
<path d="M0 0 C1.04449911 3.13349732 0.93423645 3.98968256 0 7 C0.99 4.69 1.98 2.38 3 0 C3.33 0.66 3.66 1.32 4 2 C3.15423079 4.40925101 2.24941536 6.71789324 1.25 9.0625 C0.68812126 10.41845086 0.12821754 11.77522184 -0.4296875 13.1328125 C-0.70135742 13.79313477 -0.97302734 14.45345703 -1.25292969 15.13378906 C-2.68082652 18.70073134 -3.8435521 22.33791499 -5 26 C-5.99 25.67 -6.98 25.34 -8 25 C-8.66 25.33 -9.32 25.66 -10 26 C-9.03525501 19.57682943 -7.68737243 15.41582826 -4 10 C-3.35501051 7.62707569 -2.8904013 5.28132218 -2.4921875 2.85546875 C-2.32976562 2.24316406 -2.16734375 1.63085938 -2 1 C-1.34 0.67 -0.68 0.34 0 0 Z " fill="#EBEBEB" transform="translate(309,99)"/>
<path d="M0 0 C0.99 0 1.98 0 3 0 C3.01030746 0.60482712 3.02061493 1.20965424 3.03123474 1.83280945 C3.14111209 8.24302164 3.25551474 14.65314271 3.37231445 21.06323242 C3.4150949 23.44179338 3.45679737 25.82037402 3.49731445 28.19897461 C3.75285376 43.1496012 4.18237176 58.06900478 5 73 C4.67 73 4.34 73 4 73 C3.86722656 71.74703125 3.73445312 70.4940625 3.59765625 69.203125 C3.41941709 67.55206754 3.2410236 65.90102673 3.0625 64.25 C2.97548828 63.425 2.88847656 62.6 2.79882812 61.75 C2.71181641 60.95078125 2.62480469 60.1515625 2.53515625 59.328125 C2.456604 58.5949707 2.37805176 57.86181641 2.29711914 57.10644531 C2.05154547 55.02771375 2.05154547 55.02771375 1.48654175 53.1701355 C0.94696584 50.76345029 0.89392367 48.63709054 0.91821289 46.17138672 C0.9247438 45.21714813 0.93127472 44.26290955 0.93800354 43.27975464 C0.94943893 42.25673248 0.96087433 41.23371033 0.97265625 40.1796875 C0.98529592 38.01432448 0.99765736 35.84895981 1.00976562 33.68359375 C1.03465433 30.26866568 1.06270615 26.85382223 1.09594727 23.43896484 C1.12602887 20.14420001 1.14388189 16.84954527 1.16015625 13.5546875 C1.17361588 12.52761688 1.1870755 11.50054626 1.20094299 10.44235229 C1.20432175 9.49441803 1.2077005 8.54648376 1.21118164 7.56982422 C1.21863907 6.73361542 1.2260965 5.89740662 1.23377991 5.03585815 C1.18772636 2.77317796 1.18772636 2.77317796 -1 1 C-0.67 0.67 -0.34 0.34 0 0 Z " fill="#FCFCFC" transform="translate(134,81)"/>
<path d="M0 0 C1.18335937 -0.02578125 2.36671875 -0.0515625 3.5859375 -0.078125 C6.625 0.25 6.625 0.25 8.5 1.64453125 C9.81895381 3.52678824 10.21513846 4.99576154 10.625 7.25 C10.810625 7.9925 10.99625 8.735 11.1875 9.5 C11.4040625 10.36625 11.4040625 10.36625 11.625 11.25 C10.635 11.745 10.635 11.745 9.625 12.25 C7.625 10.25 5.625 8.25 3.625 6.25 C2.11030552 6.01807135 0.58745438 5.83784762 -0.9375 5.6875 C-1.76378906 5.60371094 -2.59007813 5.51992187 -3.44140625 5.43359375 C-4.07949219 5.37300781 -4.71757813 5.31242187 -5.375 5.25 C-5.375 4.92 -5.375 4.59 -5.375 4.25 C-1.91 3.755 -1.91 3.755 1.625 3.25 C1.625 2.59 1.625 1.93 1.625 1.25 C0.51125 1.415 -0.6025 1.58 -1.75 1.75 C-6.63010338 2.37094505 -11.46361948 2.34057874 -16.375 2.25 C-16.375 1.92 -16.375 1.59 -16.375 1.25 C-10.90879381 0.49604053 -5.51908154 0.11450377 0 0 Z " fill="#E8E8E8" transform="translate(110.375,95.75)"/>
<path d="M0 0 C0.72265625 1.6171875 0.72265625 1.6171875 1 4 C-0.44140625 6.8828125 -0.44140625 6.8828125 -2.5625 10.125 C-3.30395676 11.27697621 -4.04483549 12.42932465 -4.78515625 13.58203125 C-5.15785645 14.1538916 -5.53055664 14.72575195 -5.91455078 15.31494141 C-7.50195055 17.77923137 -9.0015012 20.29344087 -10.5 22.8125 C-10.9846875 23.62332031 -11.469375 24.43414062 -11.96875 25.26953125 C-12.3090625 25.84058594 -12.649375 26.41164063 -13 27 C-14.88945917 23.22108165 -12.39570251 18.27842348 -11.1875 14.375 C-8.95874828 9.91749656 -5.49137001 6.49137001 -2 3 C-1.34 2.01 -0.68 1.02 0 0 Z " fill="#ECECEC" transform="translate(271,87)"/>
<path d="M0 0 C1 2 1 2 0.28735352 4.43017578 C-0.09493408 5.4251709 -0.47722168 6.42016602 -0.87109375 7.4453125 C-1.28037109 8.52167969 -1.68964844 9.59804687 -2.11132812 10.70703125 C-2.54896484 11.83496094 -2.98660156 12.96289062 -3.4375 14.125 C-3.87126953 15.26066406 -4.30503906 16.39632812 -4.75195312 17.56640625 C-5.82784909 20.380288 -6.91079566 23.19124866 -8 26 C-8.66 26 -9.32 26 -10 26 C-10.99 28.97 -11.98 31.94 -13 35 C-14.16513956 30.33944175 -13.54896008 29.13930916 -11.75 24.8125 C-10.18760963 20.9814332 -8.71831779 17.22181023 -7.5625 13.25 C-5.96814214 8.25372742 -3.07137189 4.20449939 0 0 Z " fill="#F0F0F0" transform="translate(187,84)"/>
<path d="M0 0 C0.99 0.33 1.98 0.66 3 1 C2.42070224 4.91025991 0.6938245 7.16056336 -2 10 C-5.0625 11.875 -5.0625 11.875 -8 13 C-8.99 12.67 -9.98 12.34 -11 12 C-10.66179961 9.00354452 -9.99645313 7.99645948 -7.8203125 5.82421875 C-6.93085938 5.11910156 -6.04140625 4.41398438 -5.125 3.6875 C-4.24070312 2.96949219 -3.35640625 2.25148437 -2.4453125 1.51171875 C-1.63835937 1.01285156 -0.83140625 0.51398438 0 0 Z " fill="#DDDDDD" transform="translate(405,196)"/>
<path d="M0 0 C1 3 1 3 -0.51171875 6.3359375 C-1.23039793 7.68581618 -1.95608864 9.03197742 -2.6875 10.375 C-6.39145443 17.42800034 -8.98784562 24.26909106 -11 32 C-11.66 31.67 -12.32 31.34 -13 31 C-12.67 29.02 -12.34 27.04 -12 25 C-12.66 25 -13.32 25 -14 25 C-13.34 22.03 -12.68 19.06 -12 16 C-11.67 16 -11.34 16 -11 16 C-11.33 18.64 -11.66 21.28 -12 24 C-11.34 24 -10.68 24 -10 24 C-9.814375 22.80375 -9.62875 21.6075 -9.4375 20.375 C-8.06448009 14.0550701 -4.65820485 4.65820485 0 0 Z " fill="#F1F1F1" transform="translate(493,117)"/>
<path d="M0 0 C0.33 0 0.66 0 1 0 C1 14.19 1 28.38 1 43 C0.67 43 0.34 43 0 43 C-0.06058594 42.03578125 -0.12117188 41.0715625 -0.18359375 40.078125 C-0.26738281 38.81484375 -0.35117188 37.5515625 -0.4375 36.25 C-0.51871094 34.99703125 -0.59992188 33.7440625 -0.68359375 32.453125 C-0.92773792 29.78863806 -1.3409733 27.5604808 -2 25 C-2.61606805 16.54697331 -1.3611279 8.32475547 0 0 Z " fill="#F1F1F1" transform="translate(88,104)"/>
<path d="M0 0 C0 1.65 0 3.3 0 5 C1.32 5 2.64 5 4 5 C3.68917128 6.75029762 3.37626821 8.50022694 3.0625 10.25 C2.88847656 11.22453125 2.71445312 12.1990625 2.53515625 13.203125 C2.09620271 15.49721795 1.59651408 17.74291971 1 20 C0.34 20 -0.32 20 -1 20 C-0.91621094 19.28972656 -0.83242188 18.57945313 -0.74609375 17.84765625 C-0.64425781 16.92855469 -0.54242188 16.00945312 -0.4375 15.0625 C-0.33308594 14.14597656 -0.22867187 13.22945312 -0.12109375 12.28515625 C-0.08113281 11.53105469 -0.04117187 10.77695313 0 10 C-0.33 9.67 -0.66 9.34 -1 9 C-2.32 12.96 -3.64 16.92 -5 21 C-6.04154027 16.83383894 -5.90661832 15.9602176 -4.5625 12.125 C-3.30773663 8.26945436 -2.67673867 5.09464348 -3 1 C-1 0 -1 0 0 0 Z " fill="#F0F0F0" transform="translate(349,80)"/>
<path d="M0 0 C0.598125 0.226875 1.19625 0.45375 1.8125 0.6875 C1.4825 2.0075 1.1525 3.3275 0.8125 4.6875 C0.4825 4.3575 0.1525 4.0275 -0.1875 3.6875 C-0.579375 4.409375 -0.97125 5.13125 -1.375 5.875 C-3.34056706 8.92501786 -5.59520862 11.1600159 -8.1875 13.6875 C-9.21563611 14.99925986 -10.22834432 16.3244893 -11.1875 17.6875 C-11.8475 17.3575 -12.5075 17.0275 -13.1875 16.6875 C-12.1975 15.2025 -12.1975 15.2025 -11.1875 13.6875 C-11.8475 13.3575 -12.5075 13.0275 -13.1875 12.6875 C-12.61 12.336875 -12.0325 11.98625 -11.4375 11.625 C-8.87771248 9.42073852 -7.71582279 7.27259089 -6.12109375 4.34375 C-3.39891254 -0.48555893 -3.39891254 -0.48555893 0 0 Z " fill="#FBFBFB" transform="translate(271.1875,84.3125)"/>
<path d="M0 0 C-0.99 0.66 -1.98 1.32 -3 2 C-3 2.66 -3 3.32 -3 4 C-3.66 4 -4.32 4 -5 4 C-5.04125 4.61875 -5.0825 5.2375 -5.125 5.875 C-5.558125 6.926875 -5.558125 6.926875 -6 8 C-6.928125 8.28875 -7.85625 8.5775 -8.8125 8.875 C-12.91000803 10.32117931 -13.79307829 12.3743429 -16 16 C-16.66 16 -17.32 16 -18 16 C-18 12 -18 12 -16 9.6875 C-15.00657227 8.78438389 -14.00558677 7.88955753 -13 7 C-12.360625 6.38125 -11.72125 5.7625 -11.0625 5.125 C-10.381875 4.485625 -9.70125 3.84625 -9 3.1875 C-8.360625 2.58292969 -7.72125 1.97835937 -7.0625 1.35546875 C-4.53475656 -0.30575658 -2.96673556 -0.26267971 0 0 Z " fill="#E8E8E8" transform="translate(393,56)"/>
<path d="M0 0 C0 4.02581542 -2.02784042 5.93548101 -4.4375 8.9375 C-8.15016964 13.49715592 -8.15016964 13.49715592 -10 19 C-10.96887581 21.01526169 -11.9641321 23.01833966 -13 25 C-13.33 25 -13.66 25 -14 25 C-13.85515275 16.16431788 -10.45489727 9.48395095 -4.203125 3.19140625 C-2.5625 1.8125 -2.5625 1.8125 0 0 Z " fill="#EEEEEE" transform="translate(503,129)"/>
<path d="M0 0 C0.66 0 1.32 0 2 0 C3.23076923 6.4 3.23076923 6.4 2.0625 9.4375 C1.711875 9.953125 1.36125 10.46875 1 11 C1.66 11 2.32 11 3 11 C3.33 8.69 3.66 6.38 4 4 C4.33 4 4.66 4 5 4 C5.99250545 9.70690634 6.10477512 15.21408489 6 21 C5.01 20.01 4.02 19.02 3 18 C2.34 18.33 1.68 18.66 1 19 C-0.25433458 15.23699626 -0.10695422 11.72789091 -0.0625 7.8125 C-0.05798828 7.06291016 -0.05347656 6.31332031 -0.04882812 5.54101562 C-0.03706354 3.69397617 -0.01912865 1.84697787 0 0 Z " fill="#F7F7F7" transform="translate(141,136)"/>
<path d="M0 0 C1.18956883 4.15226856 0.78960563 6.38725993 -0.9375 10.3125 C-1.31777344 11.19550781 -1.69804687 12.07851562 -2.08984375 12.98828125 C-2.39019531 13.65214844 -2.69054687 14.31601563 -3 15 C-3.66 15 -4.32 15 -5 15 C-5 11.66666667 -5 8.33333333 -5 5 C-6.98 5.99 -6.98 5.99 -9 7 C-3.65789474 0 -3.65789474 0 0 0 Z " fill="#E6E6E6" transform="translate(495,102)"/>
<path d="M0 0 C0.99 0 1.98 0 3 0 C4.125 7.75 4.125 7.75 3 10 C3.99 9.67 4.98 9.34 6 9 C5.67 9.99 5.34 10.98 5 12 C4.01 11.67 3.02 11.34 2 11 C1.67 13.97 1.34 16.94 1 20 C0.34 20 -0.32 20 -1 20 C-0.67 13.4 -0.34 6.8 0 0 Z " fill="#EBEBEB" transform="translate(121,111)"/>
<path d="M0 0 C0 3.40053955 -0.47909411 4.04754851 -2.375 6.75 C-4.47836625 9.77704021 -6.53670804 12.81883779 -8.51953125 15.92578125 C-8.9592627 16.60737305 -9.39899414 17.28896484 -9.85205078 17.99121094 C-10.73676084 19.3634011 -11.61415989 20.74033482 -12.48388672 22.12207031 C-13.57813893 23.801381 -14.78167109 25.4084137 -16 27 C-16.99 27 -17.98 27 -19 27 C-14.63931408 20.34934494 -10.18592982 13.78262052 -5.5625 7.3125 C-4.90725342 6.39476807 -4.90725342 6.39476807 -4.23876953 5.45849609 C-1.1354612 1.1354612 -1.1354612 1.1354612 0 0 Z " fill="#F8F8F8" transform="translate(546,141)"/>
<path d="M0 0 C0.66 0.33 1.32 0.66 2 1 C0.625 3 0.625 3 -1 5 C-1.66 5 -2.32 5 -3 5 C-3.26554688 5.72574219 -3.53109375 6.45148438 -3.8046875 7.19921875 C-5.00072948 10.00170928 -6.40329107 12.30479352 -8.125 14.8125 C-8.93324219 15.99779297 -8.93324219 15.99779297 -9.7578125 17.20703125 C-10.16773438 17.79871094 -10.57765625 18.39039063 -11 19 C-11.33 18.34 -11.66 17.68 -12 17 C-9.03 12.545 -9.03 12.545 -6 8 C-7.44375 8.845625 -8.8875 9.69125 -10.375 10.5625 C-12.8359375 12.00390625 -12.8359375 12.00390625 -15 13 C-15.66 12.67 -16.32 12.34 -17 12 C-16.10796875 11.38511719 -15.2159375 10.77023438 -14.296875 10.13671875 C-13.11455434 9.32035449 -11.93226429 8.5039459 -10.75 7.6875 C-9.87021484 7.08131836 -9.87021484 7.08131836 -8.97265625 6.46289062 C-5.93657405 4.36492371 -2.93149825 2.24216079 0 0 Z " fill="#F9F9F9" transform="translate(536,140)"/>
<path d="M0 0 C0.66 0.33 1.32 0.66 2 1 C1.62552535 7.90841162 1.06739908 14.68908322 -2 21 C-2.66 21.33 -3.32 21.66 -4 22 C-4.2248832 16.5957757 -3.4886411 12.18724757 -2 7.0625 C-1.80921875 6.37865234 -1.6184375 5.69480469 -1.421875 4.99023438 C-0.95595063 3.32455474 -0.47911589 1.66193325 0 0 Z " fill="#DBDBDB" transform="translate(387,71)"/>
<path d="M0 0 C0.94396338 2.54870112 1.0479595 3.82696429 0.3125 6.48046875 C-1.14216719 9.27291024 -2.75070011 11.11695176 -5 13.3125 C-5.70125 14.00988281 -6.4025 14.70726563 -7.125 15.42578125 C-9 17 -9 17 -11 17 C-8.0131224 10.79648498 -4.1753291 5.44549393 0 0 Z " fill="#E0E0E0" transform="translate(458,98)"/>
<path d="M0 0 C0.66 0.33 1.32 0.66 2 1 C1.07456291 2.34173403 0.13422595 3.67320159 -0.8125 5 C-1.33457031 5.7425 -1.85664062 6.485 -2.39453125 7.25 C-3.18923828 8.11625 -3.18923828 8.11625 -4 9 C-4.99 9 -5.98 9 -7 9 C-9.65410003 10.48405917 -12.17066469 12.13254497 -14.72265625 13.78515625 C-15.47417969 14.18605469 -16.22570312 14.58695313 -17 15 C-17.66 14.67 -18.32 14.34 -19 14 C-16.96866258 11.86007639 -14.92765098 10.16922784 -12.4609375 8.5546875 C-11.79835938 8.11769531 -11.13578125 7.68070312 -10.453125 7.23046875 C-9.76734375 6.78316406 -9.0815625 6.33585937 -8.375 5.875 C-3.97004001 3.20344576 -3.97004001 3.20344576 0 0 Z " fill="#EFEFEF" transform="translate(556,115)"/>
<path d="M0 0 C1.38592445 2.27022699 2.03309948 3.56594541 1.828125 6.25390625 C1.63734375 7.01574219 1.4465625 7.77757813 1.25 8.5625 C1.06953125 9.32691406 0.8890625 10.09132813 0.703125 10.87890625 C0 13 0 13 -2 16 C-2.66 16 -3.32 16 -4 16 C-4.31503541 10.01432727 -3.72729876 6.34550556 -1 1 C-0.67 0.67 -0.34 0.34 0 0 Z " fill="#E6E6E6" transform="translate(71,115)"/>
<path d="M0 0 C3.0074041 0.32222187 4.00776762 1.00776762 6.1875 3.1875 C8.14856712 6.23053519 8.66761076 8.42681564 9 12 C8.34 12 7.68 12 7 12 C7 14.31 7 16.62 7 19 C6.67 19 6.34 19 6 19 C5.01 13.72 4.02 8.44 3 3 C2.01 2.67 1.02 2.34 0 2 C0 1.34 0 0.68 0 0 Z " fill="#E3E3E3" transform="translate(121,100)"/>
<path d="M0 0 C2 0.25 2 0.25 4 1 C5 4 5 4 4.22265625 6.04296875 C3.83980469 6.75066406 3.45695313 7.45835937 3.0625 8.1875 C2.68222656 8.90292969 2.30195313 9.61835938 1.91015625 10.35546875 C1.60980469 10.89816406 1.30945313 11.44085938 1 12 C-1 8.25 -1 8.25 -1 6 C-1.66 6 -2.32 6 -3 6 C-1.125 1.125 -1.125 1.125 0 0 Z " fill="#E5E5E5" transform="translate(237,363)"/>
<path d="M0 0 C0.66 0.33 1.32 0.66 2 1 C0.10934188 2.4654862 -1.78701997 3.92234703 -3.6875 5.375 C-4.48317383 5.99375 -4.48317383 5.99375 -5.29492188 6.625 C-8.40498266 8.99093582 -11.29378434 10.74855056 -15 12 C-15.66 11.34 -16.32 10.68 -17 10 C-4.35151631 1.78523746 -4.35151631 1.78523746 0 0 Z " fill="#E6E6E6" transform="translate(436,117)"/>
<path d="M0 0 C0.33 0 0.66 0 1 0 C1.1896661 5.21581789 0.76138925 9.62728099 -0.49609375 14.68359375 C-1.18548914 17.85267489 -1.43184618 21.01858497 -1.65625 24.25 C-1.7696875 24.8275 -1.883125 25.405 -2 26 C-2.66 26.33 -3.32 26.66 -4 27 C-4.53341184 25.42085985 -5.05125763 23.83645613 -5.5625 22.25 C-5.99755859 20.92742187 -5.99755859 20.92742187 -6.44140625 19.578125 C-7.01697435 16.92165684 -6.89248371 15.52968894 -6 13 C-5.34 14.65 -4.68 16.3 -4 18 C-1.73524435 12.17634262 -0.93451186 6.1439184 0 0 Z " fill="#F9F9F9" transform="translate(64,133)"/>
<path d="M0 0 C1.8125 2 1.8125 2 3 4 C2.443125 3.649375 1.88625 3.29875 1.3125 2.9375 C-1.73980675 1.70007835 -2.8700625 1.94481481 -6 3 C-8.29182412 4.76205945 -10.25563241 6.78775745 -12.25 8.875 C-12.79140625 9.41769531 -13.3328125 9.96039063 -13.890625 10.51953125 C-16.29100188 12.97391661 -17.90137767 14.704133 -19 18 C-19.99 18.33 -20.98 18.66 -22 19 C-21.4175634 15.60963518 -20.3474109 13.97922334 -17.91015625 11.58203125 C-16.98106445 10.66067383 -16.98106445 10.66067383 -16.03320312 9.72070312 C-15.38287109 9.09099609 -14.73253906 8.46128906 -14.0625 7.8125 C-13.41603516 7.17119141 -12.76957031 6.52988281 -12.10351562 5.86914062 C-5.45831818 -0.66564856 -5.45831818 -0.66564856 0 0 Z " fill="#EEEEEE" transform="translate(528,108)"/>
<path d="M0 0 C0.99 0.33 1.98 0.66 3 1 C-0.61328125 5.6875 -0.61328125 5.6875 -2 7 C-2.99 7 -3.98 7 -5 7 C-5.99 8.485 -5.99 8.485 -7 10 C-7.99 10 -8.98 10 -10 10 C-8.90931332 6.22454612 -8.0916909 3.52956528 -5 1 C-4.34 1.33 -3.68 1.66 -3 2 C-2.01 1.34 -1.02 0.68 0 0 Z " fill="#E8E8E8" transform="translate(479,105)"/>
<path d="M0 0 C1.65 0 3.3 0 5 0 C5.6875 1.8125 5.6875 1.8125 6 4 C3.54873429 7.3877043 -0.25747625 8.5988479 -4 10.125 C-4.6290625 10.38925781 -5.258125 10.65351563 -5.90625 10.92578125 C-8.58210596 12.04261096 -11.24840871 13.0828029 -14 14 C-14.66 13.34 -15.32 12.68 -16 12 C-13.04380781 10.8278551 -10.08471211 9.66322524 -7.125 8.5 C-6.28324219 8.16613281 -5.44148437 7.83226562 -4.57421875 7.48828125 C-3.36572266 7.01455078 -3.36572266 7.01455078 -2.1328125 6.53125 C-1.38918457 6.23798828 -0.64555664 5.94472656 0.12060547 5.64257812 C2 5 2 5 4 5 C4 3.68 4 2.36 4 1 C2.68 0.67 1.36 0.34 0 0 Z " fill="#F5F5F5" transform="translate(252,371)"/>
<path d="M0 0 C1.14077657 3.42232972 1.09815117 6.08673217 1.0625 9.6875 C1.05347656 10.86699219 1.04445313 12.04648438 1.03515625 13.26171875 C1.02355469 14.16535156 1.01195312 15.06898437 1 16 C1.99 12.7 2.98 9.4 4 6 C5.15866723 10.63466892 4.70010994 13.33260039 4 18 C2.35 18.33 0.7 18.66 -1 19 C-1.02683987 16.02077407 -1.04676037 13.04178705 -1.0625 10.0625 C-1.07087891 9.21236328 -1.07925781 8.36222656 -1.08789062 7.48632812 C-1.09111328 6.67744141 -1.09433594 5.86855469 -1.09765625 5.03515625 C-1.10289307 4.2862915 -1.10812988 3.53742676 -1.11352539 2.76586914 C-1 1 -1 1 0 0 Z " fill="#F0F0F0" transform="translate(387,106)"/>
<path d="M0 0 C-0.66 0 -1.32 0 -2 0 C-2 0.66 -2 1.32 -2 2 C-2.99 2 -3.98 2 -5 2 C-5.03738281 2.62648438 -5.07476562 3.25296875 -5.11328125 3.8984375 C-5.17902344 4.71570313 -5.24476562 5.53296875 -5.3125 6.375 C-5.37050781 7.18710938 -5.42851563 7.99921875 -5.48828125 8.8359375 C-6 11 -6 11 -9 13 C-10.20408163 5.7755102 -10.20408163 5.7755102 -9.375 2.625 C-6.60821551 -0.64483622 -3.9835695 -1.3278565 0 0 Z " fill="#EBEBEB" transform="translate(82,105)"/>
<path d="M0 0 C0.66 0.33 1.32 0.66 2 1 C2 4.61029169 1.03907418 7.55806676 0 11 C-0.33 11 -0.66 11 -1 11 C-1.33 12.98 -1.66 14.96 -2 17 C-2.33 17 -2.66 17 -3 17 C-3.02712066 15.56260487 -3.04645067 14.12506137 -3.0625 12.6875 C-3.07410156 11.88699219 -3.08570313 11.08648437 -3.09765625 10.26171875 C-3 8 -3 8 -2 5 C-2.66 4.67 -3.32 4.34 -4 4 C-2.68 3.34 -1.36 2.68 0 2 C0 1.34 0 0.68 0 0 Z " fill="#F6F6F6" transform="translate(438,124)"/>
<path d="M0 0 C0.66 1.32 1.32 2.64 2 4 C3.32 3.34 4.64 2.68 6 2 C5.01 3.98 4.02 5.96 3 8 C2.34 8 1.68 8 1 8 C0.34 9.98 -0.32 11.96 -1 14 C-1.33 14 -1.66 14 -2 14 C-2.3690205 4.58997722 -2.3690205 4.58997722 0 0 Z " fill="#ECECEC" transform="translate(382,88)"/>
<path d="M0 0 C0.99 0.66 1.98 1.32 3 2 C2.58578031 6.83256305 0.53586014 8.82679218 -3 12 C-4.21386936 8.35839192 -3.6674695 7.66834531 -2.0625 4.3125 C-1.49208984 3.10013672 -1.49208984 3.10013672 -0.91015625 1.86328125 C-0.60980469 1.24839844 -0.30945313 0.63351563 0 0 Z " fill="#EBEBEB" transform="translate(314,87)"/>
<path d="M0 0 C1.485 0.99 1.485 0.99 3 2 C3.66 1.34 4.32 0.68 5 0 C6.6415049 3.2830098 5.51888624 6.42545033 5 10 C4.01 10 3.02 10 2 10 C1.67 9.34 1.34 8.68 1 8 C0.34 8 -0.32 8 -1 8 C-0.67 5.36 -0.34 2.72 0 0 Z " fill="#EBEBEB" transform="translate(143,150)"/>
<path d="M0 0 C0.33 0 0.66 0 1 0 C0.58169634 7.22124213 0.04538889 14.04567778 -2 21 C-2.33 21 -2.66 21 -3 21 C-3 17.7 -3 14.4 -3 11 C-2.34 11 -1.68 11 -1 11 C-1.20625 10.484375 -1.4125 9.96875 -1.625 9.4375 C-2.15887026 5.96734329 -1.07676761 3.29364209 0 0 Z " fill="#F6F6F6" transform="translate(68,138)"/>
<path d="M0 0 C1.485 0.99 1.485 0.99 3 2 C3.51171875 4.8203125 3.51171875 4.8203125 3.6875 8.125 C3.75324219 9.22070312 3.81898437 10.31640625 3.88671875 11.4453125 C3.92410156 12.28835937 3.96148437 13.13140625 4 14 C3.01 14.33 2.02 14.66 1 15 C0.67 10.05 0.34 5.1 0 0 Z " fill="#FBFBFB" transform="translate(123,106)"/>
<path d="M0 0 C0.86625 0.37125 0.86625 0.37125 1.75 0.75 C1.42 2.07 1.09 3.39 0.75 4.75 C-0.24 4.75 -1.23 4.75 -2.25 4.75 C-4.92398476 6.68897879 -4.92398476 6.68897879 -7.25 8.75 C-6.89947365 5.59526281 -6.38480924 3.9266466 -4.4375 1.375 C-2.25 -0.25 -2.25 -0.25 0 0 Z " fill="#F4F4F4" transform="translate(271.25,84.25)"/>
<path d="M0 0 C0.66 0.33 1.32 0.66 2 1 C1.236875 1.7425 0.47375 2.485 -0.3125 3.25 C-2.4393702 5.4263323 -4.2559956 7.52167796 -6 10 C-6.66 9.67 -7.32 9.34 -8 9 C-8 8.67 -8 8.34 -8 8 C-8.66 7.67 -9.32 7.34 -10 7 C-6.7 4.69 -3.4 2.38 0 0 Z " fill="#F0F0F0" transform="translate(523,146)"/>
<path d="M0 0 C-3.90102388 2.78644563 -7.38486888 4.68139111 -12 6 C-10.9200311 2.86809018 -9.99049526 1.99400788 -7.125 0.1875 C-4.02316031 -0.99119908 -2.9798555 -1.26070809 0 0 Z " fill="#EBEBEB" transform="translate(500,90)"/>
<path d="M0 0 C0.99 0.33 1.98 0.66 3 1 C2.04882866 2.1725131 1.08882991 3.33787015 0.125 4.5 C-0.67550781 5.47453125 -0.67550781 5.47453125 -1.4921875 6.46875 C-1.98976563 6.9740625 -2.48734375 7.479375 -3 8 C-3.66 8 -4.32 8 -5 8 C-5.33 8.66 -5.66 9.32 -6 10 C-6 9.34 -6 8.68 -6 8 C-6.99 7.67 -7.98 7.34 -9 7 C-8.01 6.34 -7.02 5.68 -6 5 C-6 5.66 -6 6.32 -6 7 C-5.34 7 -4.68 7 -4 7 C-3.71125 6.401875 -3.4225 5.80375 -3.125 5.1875 C-2 3 -2 3 0 0 Z " fill="#F5F5F5" transform="translate(381,65)"/>
<path d="M0 0 C0 3.23861295 -0.6250851 5.09740189 -2 8 C-2.99 8.495 -2.99 8.495 -4 9 C-4.33 9.99 -4.66 10.98 -5 12 C-3.02 12.495 -3.02 12.495 -1 13 C-2.65 13 -4.3 13 -6 13 C-6.35281338 8.8029908 -5.64185432 6.93477927 -3 3.6875 C-2.443125 2.99011719 -1.88625 2.29273438 -1.3125 1.57421875 C-0.6628125 0.79498047 -0.6628125 0.79498047 0 0 Z " fill="#EDEDED" transform="translate(361,280)"/>
<path d="M0 0 C1.43410153 3.78819273 0.51009497 6.06521279 -0.9375 9.75 C-1.31777344 10.73484375 -1.69804687 11.7196875 -2.08984375 12.734375 C-2.39019531 13.48203125 -2.69054687 14.2296875 -3 15 C-3.66 15 -4.32 15 -5 15 C-4.56826496 8.84777564 -3.34594658 5.18082051 0 0 Z " fill="#DBDBDB" transform="translate(486,126)"/>
<path d="M0 0 C0.66 0.33 1.32 0.66 2 1 C1.375 2.9375 1.375 2.9375 0 5 C-3.125 5.75 -3.125 5.75 -6 6 C-5.67 4.35 -5.34 2.7 -5 1 C-4.01 1.33 -3.02 1.66 -2 2 C-1.34 1.34 -0.68 0.68 0 0 Z " fill="#EAEAEA" transform="translate(488,98)"/>
<path d="M0 0 C1.23637074 3.96668945 0.35517821 6.10386264 -1 10 C-0.67 10.66 -0.34 11.32 0 12 C-1.32 13.32 -2.64 14.64 -4 16 C-3.47606294 10.13190493 -2.23891142 5.45126259 0 0 Z " fill="#F1F1F1" transform="translate(357,86)"/>
<path d="M0 0 C0.66 0.33 1.32 0.66 2 1 C0.68 4.3 -0.64 7.6 -2 11 C-3 7 -3 7 -3 5 C-4.98 5.99 -4.98 5.99 -7 7 C-4.78071806 4.09197539 -3.07030857 2.04687238 0 0 Z " fill="#FCFCFC" transform="translate(493,102)"/>
<path d="M0 0 C0.96846689 2.61486062 1.04559628 3.8442127 0.25 6.5625 C-0.93965623 8.88232965 -2.04240712 10.30935161 -4 12 C-4.66 11.67 -5.32 11.34 -6 11 C-5.2575 10.1028125 -5.2575 10.1028125 -4.5 9.1875 C-2.71723582 7.02970006 -2.71723582 7.02970006 -3 4 C-1.5 1.8125 -1.5 1.8125 0 0 Z " fill="#EFEFEF" transform="translate(458,98)"/>
<path d="M0 0 C2.41793589 1.20896794 2.79103206 1.58206411 4 4 C2.625 6 2.625 6 1 8 C0.34 8 -0.32 8 -1 8 C-1.625 5.125 -1.625 5.125 -2 2 C-1.34 1.34 -0.68 0.68 0 0 Z " fill="#E6E6E6" transform="translate(431,124)"/>
<path d="M0 0 C0.66 0 1.32 0 2 0 C0.49087042 4.98012761 -2.55661849 8.24259942 -6 12 C-6 7.75354935 -4.18249194 5.61475228 -2 2 C-1.34 2 -0.68 2 0 2 C0 1.34 0 0.68 0 0 Z " fill="#F7F7F7" transform="translate(447,116)"/>
<path d="M0 0 C0 4.07746885 -1.52068051 5.83198065 -4 9 C-6.25 9.875 -6.25 9.875 -8 10 C-6.5682479 4.98886765 -4.01554307 3.05530451 0 0 Z " fill="#EAEAEA" transform="translate(256,102)"/>
<path d="M0 0 C0.33 0.99 0.66 1.98 1 3 C-0.65 4.65 -2.3 6.3 -4 8 C-4.33 7.01 -4.66 6.02 -5 5 C-5.99 5.66 -6.98 6.32 -8 7 C-6.63016497 3.83884224 -6.0109362 3.0072908 -3 1 C-2.67 1.66 -2.34 2.32 -2 3 C-1.34 2.01 -0.68 1.02 0 0 Z " fill="#F1F1F1" transform="translate(333,87)"/>
<path d="M0 0 C0.66 0.99 1.32 1.98 2 3 C-1 5 -1 5 -3 5 C-4.37310707 6.29233607 -5.71034824 7.62437146 -7 9 C-7.66 8.67 -8.32 8.34 -9 8 C-8.07038578 6.84775972 -7.1309875 5.70340824 -6.1875 4.5625 C-5.66542969 3.92441406 -5.14335937 3.28632812 -4.60546875 2.62890625 C-3 1 -3 1 0 0 Z " fill="#EDEDED" transform="translate(252,112)"/>
<path d="M0 0 C2.38594197 1.19297098 2.83734847 2.14357265 4.125 4.4375 C4.47820312 5.05496094 4.83140625 5.67242187 5.1953125 6.30859375 C6 8 6 8 6 10 C4.125 9.8125 4.125 9.8125 2 9 C0.21715186 5.70173093 0 3.8225249 0 0 Z " fill="#D9D9D9" transform="translate(140,154)"/>
<path d="M0 0 C0.66 0.33 1.32 0.66 2 1 C1.3503125 1.5878125 1.3503125 1.5878125 0.6875 2.1875 C-1.14164898 4.00305796 -1.14164898 4.00305796 -2.4375 6.625 C-4 9 -4 9 -6.1875 9.8125 C-6.785625 9.874375 -7.38375 9.93625 -8 10 C-8 9.34 -8 8.68 -8 8 C-7.01 8 -6.02 8 -5 8 C-4.9175 7.4225 -4.835 6.845 -4.75 6.25 C-3.79468987 3.3840696 -2.21530827 2.0009236 0 0 Z " fill="#F6F6F6" transform="translate(452,104)"/>
<path d="M0 0 C1.25127906 3.54667178 0.72285053 5.72253438 -0.4375 9.25 C-0.72496094 10.14203125 -1.01242188 11.0340625 -1.30859375 11.953125 C-1.53675781 12.62859375 -1.76492187 13.3040625 -2 14 C-2.66 13.01 -3.32 12.02 -4 11 C-3.3203125 8.30078125 -3.3203125 8.30078125 -2.125 5.3125 C-1.73570313 4.31863281 -1.34640625 3.32476562 -0.9453125 2.30078125 C-0.63335937 1.54152344 -0.32140625 0.78226562 0 0 Z " fill="#F8F8F8" transform="translate(72,122)"/>
<path d="M0 0 C-0.33 1.32 -0.66 2.64 -1 4 C-1.33 3.01 -1.66 2.02 -2 1 C-6.07964281 2.30155006 -6.07964281 2.30155006 -10 4 C-10.66 3.34 -11.32 2.68 -12 2 C-4.71428571 -1.57142857 -4.71428571 -1.57142857 0 0 Z " fill="#F0F0F0" transform="translate(355,162)"/>
<path d="M0 0 C0.99 0.66 1.98 1.32 3 2 C3.1875 5.125 3.1875 5.125 3 8 C2.34 7.01 1.68 6.02 1 5 C0.01 5.33 -0.98 5.66 -2 6 C-1.125 1.125 -1.125 1.125 0 0 Z " fill="#EEEEEE" transform="translate(158,152)"/>
<path d="M0 0 C0 3 0 3 -2 6 C-1.34 6.33 -0.68 6.66 0 7 C-2.375 8.5625 -2.375 8.5625 -5 10 C-5.66 9.67 -6.32 9.34 -7 9 C-4.69 6.03 -2.38 3.06 0 0 Z " fill="#F9F9F9" transform="translate(508,143)"/>
<path d="M0 0 C1.32 0 2.64 0 4 0 C4 0.66 4 1.32 4 2 C-1.2734375 5.22265625 -1.2734375 5.22265625 -3 6 C-3.66 5.67 -4.32 5.34 -5 5 C-4.360625 4.731875 -3.72125 4.46375 -3.0625 4.1875 C-0.66868314 3.11332248 -0.66868314 3.11332248 0 0 Z " fill="#FBFBFB" transform="translate(514,146)"/>
<path d="M0 0 C0.66 0.33 1.32 0.66 2 1 C-2.455 4.465 -2.455 4.465 -7 8 C-7.66 7.67 -8.32 7.34 -9 7 C-8.25 5.0625 -8.25 5.0625 -7 3 C-5.0625 2.375 -5.0625 2.375 -3 2 C-2.01 1.34 -1.02 0.68 0 0 Z " fill="#F0F0F0" transform="translate(534,138)"/>
<path d="M0 0 C1.13643966 3.40931897 0.86747764 4.00335456 -0.4375 7.1875 C-0.72496094 7.90292969 -1.01242187 8.61835937 -1.30859375 9.35546875 C-1.53675781 9.89816406 -1.76492188 10.44085938 -2 11 C-2.66 10.01 -3.32 9.02 -4 8 C-3.06810009 4.89366697 -1.80806372 2.71209558 0 0 Z " fill="#F5F5F5" transform="translate(305,109)"/>
<path d="M0 0 C0.66 0 1.32 0 2 0 C0.55746343 3.36591866 -1.33264727 5.51047079 -4 8 C-4.66 7.67 -5.32 7.34 -6 7 C-5.04882866 5.8274869 -4.08882991 4.66212985 -3.125 3.5 C-2.59132813 2.8503125 -2.05765625 2.200625 -1.5078125 1.53125 C-0.76144531 0.77328125 -0.76144531 0.77328125 0 0 Z " fill="#E9E9E9" transform="translate(472,82)"/>
<path d="M0 0 C0.99 0.33 1.98 0.66 3 1 C0.03 4.96 0.03 4.96 -3 9 C-3.33 8.01 -3.66 7.02 -4 6 C-2.0625 2.8125 -2.0625 2.8125 0 0 Z " fill="#F0F0F0" transform="translate(326,95)"/>
<path d="M0 0 C1 2 1 2 0.25 5.5 C-1 9 -1 9 -4 11 C-3.39301257 6.87248551 -1.96189209 3.6678852 0 0 Z " fill="#F5F5F5" transform="translate(324,89)"/>
<path d="M0 0 C1 2 1 2 0.51171875 4.12890625 C0.23972656 4.93199219 -0.03226562 5.73507813 -0.3125 6.5625 C-0.57675781 7.36816406 -0.84101563 8.17382812 -1.11328125 9.00390625 C-2 11 -2 11 -4 12 C-3.71640113 10.5608866 -3.42278601 9.12374482 -3.125 7.6875 C-2.96257812 6.88699219 -2.80015625 6.08648437 -2.6328125 5.26171875 C-2 3 -2 3 0 0 Z " fill="#F2F2F2" transform="translate(323,67)"/>
<path d="M0 0 C0.66 0 1.32 0 2 0 C2.6875 3.3125 2.6875 3.3125 3 7 C2.01 7.99 1.02 8.98 0 10 C0 6.7 0 3.4 0 0 Z " fill="#FDFDFD" transform="translate(141,136)"/>
<path d="M0 0 C0 0.33 0 0.66 0 1 C-4.33085971 2.29925791 -8.51474352 3.343621 -13 4 C-8.74504132 -0.44836589 -5.9812469 -0.09647172 0 0 Z " fill="#F3F3F3" transform="translate(201,80)"/>
<path d="M0 0 C0.66 0.66 1.32 1.32 2 2 C0.35 4.31 -1.3 6.62 -3 9 C-3.66 8.67 -4.32 8.34 -5 8 C-3.35 5.36 -1.7 2.72 0 0 Z " fill="#F2F2F2" transform="translate(532,160)"/>
<path d="M0 0 C0.66 0.66 1.32 1.32 2 2 C-2.75 6.875 -2.75 6.875 -5 8 C-3.8141763 4.62496331 -2.72426311 2.35277269 0 0 Z " fill="#F4F4F4" transform="translate(460,116)"/>
<path d="M0 0 C0.33 0.66 0.66 1.32 1 2 C0.01 2.99 -0.98 3.98 -2 5 C-2.66 4.67 -3.32 4.34 -4 4 C-4.33 4.66 -4.66 5.32 -5 6 C-5.33 4.68 -5.66 3.36 -6 2 C-5.34 1.67 -4.68 1.34 -4 1 C-4 1.66 -4 2.32 -4 3 C-2.68 2.01 -1.36 1.02 0 0 Z " fill="#E9E9E9" transform="translate(451,112)"/>
<path d="M0 0 C0.66 0 1.32 0 2 0 C0.70700306 2.88437779 -0.65941363 4.87219421 -3 7 C-3.66 6.67 -4.32 6.34 -5 6 C-3.38405168 3.95880212 -1.7143618 1.95927063 0 0 Z " fill="#EAEAEA" transform="translate(232,65)"/>
<path d="M0 0 C0 0.66 0 1.32 0 2 C-5.2734375 5.22265625 -5.2734375 5.22265625 -7 6 C-7.66 5.67 -8.32 5.34 -9 5 C-7.87926138 4.16094435 -6.75325453 3.32892169 -5.625 2.5 C-4.99851562 2.0359375 -4.37203125 1.571875 -3.7265625 1.09375 C-2 0 -2 0 0 0 Z " fill="#F1F1F1" transform="translate(545,132)"/>
<path d="M0 0 C1.39195915 4.17587745 -0.17676781 6.13474776 -2 10 C-3.16909807 6.49270578 -2.85056945 4.55692677 -2 1 C-1.34 0.67 -0.68 0.34 0 0 Z " fill="#F6F6F6" transform="translate(309,99)"/>
<path d="M0 0 C1.98 1.65 3.96 3.3 6 5 C5.67 5.99 5.34 6.98 5 8 C2.5 6.25 2.5 6.25 0 4 C0 2.68 0 1.36 0 0 Z " fill="#F4F4F4" transform="translate(168,64)"/>
</svg>
